<svg xmlns="http://www.w3.org/2000/svg" viewBox="-1394 1211 174.001 174"><defs><style>.a{fill:#2d4463;}.b{fill:#001e40;}.c{fill:#fff;}</style></defs><g transform="translate(-1632 -633.98)"><circle class="a" cx="87" cy="87" r="87" transform="translate(238 1844.98)"/><path class="b" d="M-4535.777-7268.543c11.6-9.564,45.953-12.779,67.808-34.636,23.876-23.876,32.845-70,49.148-82.092a87,87,0,0,1,47.822,77.7,87,87,0,0,1-87,87A87,87,0,0,1-4535.777-7268.543Z" transform="translate(4783 9239.552)"/><path class="c" d="M52.69,49.421a.309.309,0,0,1-.04-.042C71.689,28.417,75.877,3.739,73.321.98,70.236-2.346,47.328,2.486,27.549,22.319c-.015-.016-.035-.034-.052-.055l0-.005c-2.943-3.17-7.317-3.668-10.275-.506L1.76,38.262c-2.955,3.16-2.1,6.817,1.906,8.134l1.98.642c3.812,1.251,9.146-.061,12.2-2.92.908,3.344,3.02,6.325,5.651,9.163s5.4,5.111,8.512,6.125a15.613,15.613,0,0,0-2.9,12.934l.582,2.109c1.183,4.279,4.611,5.24,7.621,2.135L53.036,60.359c3.012-3.107,2.6-7.755-.342-10.933Zm-2.7-36.066a7.258,7.258,0,0,1,10.71.071,8.427,8.427,0,0,1-.072,11.4,7.257,7.257,0,0,1-10.708-.076A8.421,8.421,0,0,1,49.987,13.355ZM19.765,57.2a33.816,33.816,0,0,1-5.844-8.173,5.574,5.574,0,0,0-1.012.824c-2.923,3.065-2.3,8.826,1.386,12.8s9.091,4.705,12.015,1.64a6.212,6.212,0,0,0,.71-.972A32.939,32.939,0,0,1,19.765,57.2Z" transform="translate(285.781 1892.761)"/></g></svg>