<svg xmlns="http://www.w3.org/2000/svg" viewBox="-999 1187 174.001 174.001"><defs><style>.a{fill:#2d4463;}.b{fill:#001e40;}.c{fill:#fff;}</style></defs><g transform="translate(-1229.705 -658)"><ellipse class="a" cx="87" cy="87" rx="87" ry="87" transform="translate(230.704 1845)"/><path class="b" d="M-4944.294-7284a87.308,87.308,0,0,1,2.161-19.354c11.349-9.427,40.253,20.242,75.02,20.242,37.183,0,81.074-33.936,95.2-17.683a87.425,87.425,0,0,1,1.62,16.8,87,87,0,0,1-87,87A87,87,0,0,1-4944.294-7284Z" transform="translate(5175 9216)"/><path class="c" d="M40,80A40,40,0,1,1,80,40,40,40,0,0,1,40,80ZM54.531,36.635a3.509,3.509,0,0,0,0-7.019h-4.2l2.079-4.725a3.493,3.493,0,1,0-6.383-2.841l-3.329,7.566H36.669L33.337,22.05a3.494,3.494,0,1,0-6.383,2.842l2.082,4.724H23.452a3.509,3.509,0,0,0,0,7.019H35.478v8.293H23.451a3.509,3.509,0,0,0,0,7.019H35.478v9.362a3.49,3.49,0,1,0,6.981,0V51.947H54.531a3.509,3.509,0,0,0,0-7.019H42.459V36.635H54.531Z" transform="translate(277.777 1892.072)"/></g></svg>