<svg xmlns="http://www.w3.org/2000/svg" viewBox="-602.197 1211 174 174"><defs><style>.a{fill:#2d4463;}.b{fill:#001e40;}.c{fill:#fff;}</style></defs><g transform="translate(-838.295 -633.981)"><circle class="a" cx="87" cy="87" r="87" transform="translate(236.098 1844.98)"/><path class="b" d="M-5290.735-7318.36a86.99,86.99,0,0,1,46.51-77.024c8.9,12.605,12.581,45.488,33.75,66.657,24.925,24.925,74.088,33.611,83.507,51.34a86.979,86.979,0,0,1-76.767,46.027A87,87,0,0,1-5290.735-7318.36Z" transform="translate(5526.833 9250.341)"/><path class="c" d="M244.584,131.84l-33,13.2v26.4c0,18.084,11.776,32.977,29.04,39.6,3.914,1.5,4.006,1.5,7.92,0,17.264-6.623,29.04-21.516,29.04-39.6v-26.4Zm-4.37,54-12.28-12.39,4.2-4.238,8.08,8.152,20.143-20.329,4.2,4.237Z" transform="translate(77.632 1760.001)"/></g></svg>