<svg xmlns="http://www.w3.org/2000/svg" xmlns:xlink="http://www.w3.org/1999/xlink" viewBox="-716.648 -676.105 210 170.073"><defs><style>.a,.b,.j{fill:#02214a;}.a,.c,.v{opacity:0.1;}.ar,.d,.k,.l{fill:none;stroke-miterlimit:10;}.d,.k{stroke:#535461;}.e{fill:#f5f5f5;}.e,.n{opacity:0.2;}.f{fill:url(#a);}.g{fill:#535461;}.ag,.h{fill:#fff;}.i{fill:url(#b);}.j{opacity:0.5;}.k{stroke-width:2px;}.l{stroke:#02214a;}.m{fill:#a8a8a8;}.o{fill:#ffd037;}.p{fill:url(#c);}.q{fill:#8c8296;}.r{fill:#e7c4c3;}.s{fill:#ffc7d1;}.t{fill:#ffe09c;}.u{fill:#ad5975;}.w{fill:url(#d);}.x{fill:#ffbcc8;}.y{fill:#40243e;}.z{fill:#dfd5e3;}.aa{fill:#f60;}.ab,.ac{opacity:0.05;}.ad{fill:url(#e);}.ae{fill:#ffdf9c;}.af{fill:#e2e7f0;}.ag{opacity:0.4;}.ah{fill:#d8e2f0;}.ai{fill:url(#f);}.aj{fill:#ffcdd3;}.ak{fill:#dce6f2;}.al{fill:#ff748e;}.am{fill:#2d283d;}.an{fill:url(#g);}.ao{fill:url(#h);}.ap{fill:#db8b8b;}.aq{fill:#abb1d1;}.ar{stroke:#c1272d;}.as{fill:#472727;}.at{fill:url(#i);}.au{fill:#f7bbc3;}.av{fill:#cbcdda;}.aw{fill:#a95f60;}</style><linearGradient id="a" x1="-0.258" y1="1" x2="-0.258" gradientUnits="objectBoundingBox"><stop offset="0" stop-color="gray" stop-opacity="0.251"/><stop offset="0.54" stop-color="gray" stop-opacity="0.122"/><stop offset="1" stop-color="gray" stop-opacity="0.102"/></linearGradient><linearGradient id="b" x1="-0.256" y1="1.181" x2="-0.256" y2="0.181" xlink:href="#a"/><linearGradient id="c" x1="-3.508" x2="-3.508" y2="-0.005" xlink:href="#a"/><linearGradient id="d" x1="-8.365" x2="-8.365" y2="-0.002" xlink:href="#a"/><linearGradient id="e" x1="-0.265" y1="1.181" x2="-0.265" y2="0.181" xlink:href="#a"/><linearGradient id="f" x1="11.28" y1="1.002" x2="11.28" y2="0" xlink:href="#a"/><linearGradient id="g" x1="1.022" y1="0.86" x2="1.022" y2="-0.14" xlink:href="#a"/><linearGradient id="h" x1="1.465" y1="0.706" x2="1.465" y2="-0.247" xlink:href="#a"/><linearGradient id="i" x1="1.739" x2="1.739" y2="0" xlink:href="#a"/></defs><g transform="translate(-716.652 -676.107)"><path class="a" d="M281.713,118.427c2.387,4.9.868,11.933,4.248,15.939,2.479,2.938,6.594,2.921,9.4,5.4,2.187,1.934,3.276,5.1,4.267,8.1l4.816,14.606c2.193,6.652,4.067,15.215-.351,20.092-2.648,2.921-6.648,3.253-10.264,2.942-26.172-2.251-47.223-28.649-73.305-32.054-18.435-2.408-36.648,7.071-55.19,6.548-9.807-.278-19.382-3.339-28.845-6.393-7.278-2.343-15.355-5.425-18.825-13.325-1.55-3.53-2.032-7.8-4.336-10.7-1.765-2.226-4.317-3.28-6.51-4.893-9.554-7.028-10.641-22.767-9.817-36.014.461-7.349,1.242-14.873,4.148-21.4s8.375-11.916,14.618-12.129c3.948-.136,7.72,1.746,11.562,2.8s8.346,1.083,11.23-2.087c2.366-2.6,3.109-6.781,5.475-9.39,1.842-2.026,4.413-2.813,6.9-3.295,13.364-2.594,27.6,1.895,38.082,12.029,2.539,2.46,4.974,5.306,8.088,6.558,4.146,1.68,8.678.257,13.062.292,15.466.125,25.955,16.864,36.855,27.415,6.372,6.17,12.536,7.5,19.451,11.61C270.757,103.638,279.132,113.13,281.713,118.427Z" transform="translate(-96.78 -42.46)"/><path class="a" d="M306.5,698.675c.9,1.922-.386,4,.058,5.98.561,2.5,3.779,4.453,7.245,5.7s7.336,2,10.714,3.339c1.461.578,2.984,1.644,2.224,2.625a3.364,3.364,0,0,1-1.237.8c-9.84,4.54-22,7.007-34.155,6.927-12.853-.086-25.439-2.921-38.282-2.6-16.563.417-32.584,6.064-48.963,4.436-6.952-.691-13.412-2.66-20.181-3.889-9.957-1.809-20.43-1.99-30.741-2.585-7.743-.447-16.592-1.6-20.292-5.957-2.675-3.146-1.552-7.3,2.216-9.968s9.79-3.808,15.351-3.295c2.99.277,5.961,1,8.951.712a24.564,24.564,0,0,0,4.922-1.152c12.25-3.8,24.941-7.587,38.539-8.138,22.118-.9,42.618,6.792,64.166,10.12,3.355.517,7,.916,10.168.048,3.339-.916,5.529-3.08,8.874-3.992,1.588-.434,3.357-.559,4.918-1.031,4.29-1.3,2.3-3.082,8.25-1.878C302.359,695.516,305.5,696.53,306.5,698.675Z" transform="translate(-124.193 -556.103)"/><path class="b" d="M847.854,424.54a27.751,27.751,0,0,0-5.066,28.891c6.577,17.256-11.267,45.973-11.267,45.973s.192-.027.545-.09a33.874,33.874,0,0,0,22.481-51.849C849.615,439.924,845.558,431.071,847.854,424.54Z" transform="translate(-678.209 -344.815)"/><path class="c" d="M847.854,424.54a27.751,27.751,0,0,0-5.066,28.891c6.577,17.256-11.267,45.973-11.267,45.973s.192-.027.545-.09a33.874,33.874,0,0,0,22.481-51.849C849.615,439.924,845.558,431.071,847.854,424.54Z" transform="translate(-678.209 -344.815)"/><path class="d" d="M847.885,424.54s-6.568,14.262,0,25.9,1.127,44.285-16.325,48.976" transform="translate(-678.24 -344.815)"/><path class="b" d="M857.354,649.509s-13.277-2.114-14.487,9.784-25.527,13.548-25.527,13.548.159.109.457.3c20.079,13.181,39.273,8.4,36.379-9.106C853.1,657.53,853.187,650.995,857.354,649.509Z" transform="translate(-666.987 -522.728)"/><path class="e" d="M857.354,649.509s-13.277-2.114-14.487,9.784-25.527,13.548-25.527,13.548.159.109.457.3c20.079,13.181,39.273,8.4,36.379-9.106C853.1,657.53,853.187,650.995,857.354,649.509Z" transform="translate(-666.987 -522.728)"/><path class="d" d="M857.354,650.06s-10.306,2.262-9.458,11.633-15.3,20.6-30.556,11.7" transform="translate(-666.987 -523.279)"/><path class="f" d="M509.6,60.35h65.31a6.468,6.468,0,0,1,6.468,6.448v143a6.468,6.468,0,0,1-6.468,6.447H509.6a6.468,6.468,0,0,1-6.468-6.448V66.8A6.468,6.468,0,0,1,509.6,60.35Z" transform="translate(-418.339 -56.615)"/><rect class="g" width="77.053" height="154.105" rx="26.87" transform="translate(162.436 159.034) rotate(180)"/><rect class="h" width="65.704" height="125.434" transform="translate(156.762 144.699) rotate(180)"/><circle class="h" cx="0.597" cy="0.597" r="0.597" transform="translate(131.079 11.501)"/><rect class="h" width="13.141" height="1.196" rx="0.598" transform="translate(128.69 12.694) rotate(180)"/><circle class="h" cx="4.181" cy="4.181" r="4.181" transform="translate(120.029 146.491)"/><rect class="i" width="49.02" height="49.02" transform="translate(98.349 30.416)"/><rect class="h" width="47.576" height="47.576" transform="translate(146.647 78.713) rotate(180)"/><rect class="j" width="43.242" height="32.404" transform="translate(144.481 65.712) rotate(180)"/><path class="k" d="M704,263.937a5.156,5.156,0,0,0,2.31-2.151,2.871,2.871,0,0,1,1.2-1.36,4.825,4.825,0,0,1,.8-.365" transform="translate(-577.297 -214.655)"/><path class="b" d="M724.968,255.623a3.205,3.205,0,0,0-.388.874,3.221,3.221,0,0,0,.92-.267.4.4,0,0,0-.53-.607Z" transform="translate(-593.582 -211.065)"/><path class="b" d="M719.849,256.349a3.243,3.243,0,0,0,.15.945,3.207,3.207,0,0,0,.626-.724.4.4,0,1,0-.776-.221Z" transform="translate(-589.83 -211.486)"/><path class="b" d="M712.326,262.314a3.38,3.38,0,0,0,.607.741,3.229,3.229,0,0,0,.175-.941.4.4,0,0,0-.78.209Z" transform="translate(-583.876 -216.042)"/><path class="b" d="M707.835,268.949a.528.528,0,1,0,.8-.065.4.4,0,0,0-.8.065Z" transform="translate(-580.33 -221.344)"/><path class="b" d="M719.955,262.123a3.241,3.241,0,0,1-.835-.474,3.231,3.231,0,0,1,.9-.332.4.4,0,1,1-.067.8Z" transform="translate(-589.262 -215.649)"/><path class="b" d="M715.243,269.644c-.209-.083-.653-.7-.653-.7a3.194,3.194,0,0,1,.956-.048.4.4,0,1,1-.3.747Z" transform="translate(-585.677 -221.624)"/><path class="b" d="M708.592,276.056a3.4,3.4,0,0,1-.762-.58,3.186,3.186,0,0,1,.935-.209.4.4,0,1,1-.173.789Z" transform="translate(-580.327 -226.684)"/><path class="a" d="M724.968,255.623a3.205,3.205,0,0,0-.388.874,3.221,3.221,0,0,0,.92-.267.4.4,0,0,0-.53-.607Z" transform="translate(-593.582 -211.065)"/><path class="a" d="M719.849,256.349a3.243,3.243,0,0,0,.15.945,3.207,3.207,0,0,0,.626-.724.4.4,0,1,0-.776-.221Z" transform="translate(-589.83 -211.486)"/><path class="a" d="M712.326,262.314a3.38,3.38,0,0,0,.607.741,3.229,3.229,0,0,0,.175-.941.4.4,0,0,0-.78.209Z" transform="translate(-583.876 -216.042)"/><path class="a" d="M707.835,268.949a.528.528,0,1,0,.8-.065.4.4,0,0,0-.8.065Z" transform="translate(-580.33 -221.344)"/><path class="a" d="M719.955,262.123a3.241,3.241,0,0,1-.835-.474,3.231,3.231,0,0,1,.9-.332.4.4,0,1,1-.067.8Z" transform="translate(-589.262 -215.649)"/><path class="a" d="M715.243,269.644c-.209-.083-.653-.7-.653-.7a3.194,3.194,0,0,1,.956-.048.4.4,0,1,1-.3.747Z" transform="translate(-585.677 -221.624)"/><path class="a" d="M708.592,276.056a3.4,3.4,0,0,1-.762-.58,3.186,3.186,0,0,1,.935-.209.4.4,0,1,1-.173.789Z" transform="translate(-580.327 -226.684)"/><path class="l" d="M633.93,313.23s-.643,1.262-.119,1.953-.048,2.573-.048,2.573" transform="translate(-521.59 -256.73)"/><path class="b" d="M634.25,309.67a.257.257,0,1,0,.179-.44A.743.743,0,0,0,634.25,309.67Z" transform="translate(-522.1 -253.565)"/><path class="l" d="M633.183,313.23s.643,1.262.119,1.953.048,2.573.048,2.573" transform="translate(-521.175 -256.73)"/><path class="b" d="M632.827,309.67a.257.257,0,1,1-.179-.44A.743.743,0,0,1,632.827,309.67Z" transform="translate(-520.629 -253.565)"/><path class="c" d="M632.827,309.67a.257.257,0,1,1-.179-.44A.743.743,0,0,1,632.827,309.67Z" transform="translate(-520.629 -253.565)"/><path class="l" d="M631.08,313.23s-.643,1.262-.119,1.953-.048,2.573-.048,2.573" transform="translate(-519.335 -256.73)"/><path class="b" d="M631.4,309.67a.257.257,0,1,0,.18-.44A.743.743,0,0,0,631.4,309.67Z" transform="translate(-519.845 -253.565)"/><path class="b" d="M631.207,314.552a.743.743,0,0,0,.434.194.626.626,0,0,0-.611-.626A.743.743,0,0,0,631.207,314.552Z" transform="translate(-519.552 -257.435)"/><path class="b" d="M631.127,318.722a.742.742,0,0,0,.434.194.626.626,0,0,0-.611-.626A.743.743,0,0,0,631.127,318.722Z" transform="translate(-519.489 -260.734)"/><path class="b" d="M635.594,321.845a.743.743,0,0,0-.154.451.626.626,0,0,0,.578-.666A.743.743,0,0,0,635.594,321.845Z" transform="translate(-523.042 -263.378)"/><path class="b" d="M634.449,313.382a.742.742,0,0,0-.269.392.626.626,0,0,0,.734-.486.743.743,0,0,0-.465.094Z" transform="translate(-522.045 -256.771)"/><path class="c" d="M634.449,313.382a.742.742,0,0,0-.269.392.626.626,0,0,0,.734-.486.743.743,0,0,0-.465.094Z" transform="translate(-522.045 -256.771)"/><path class="l" d="M630.323,313.23s.643,1.262.119,1.953.048,2.573.048,2.573" transform="translate(-518.912 -256.73)"/><path class="b" d="M629.967,309.67a.257.257,0,1,1-.179-.44A.742.742,0,0,1,629.967,309.67Z" transform="translate(-518.366 -253.565)"/><path class="c" d="M629.967,309.67a.257.257,0,1,1-.179-.44A.742.742,0,0,1,629.967,309.67Z" transform="translate(-518.366 -253.565)"/><path class="b" d="M629.694,315.576a.742.742,0,0,1,.182.44.626.626,0,0,1-.626-.626A.743.743,0,0,1,629.694,315.576Z" transform="translate(-518.144 -258.44)"/><path class="c" d="M629.694,315.576a.742.742,0,0,1,.182.44.626.626,0,0,1-.626-.626A.743.743,0,0,1,629.694,315.576Z" transform="translate(-518.144 -258.44)"/><path class="b" d="M628.084,321.356a.743.743,0,0,1,.182.44.626.626,0,0,1-.626-.626A.743.743,0,0,1,628.084,321.356Z" transform="translate(-516.87 -263.014)"/><path class="l" d="M628.611,318.416a1.379,1.379,0,0,0-.931-.626" transform="translate(-516.901 -260.339)"/><path class="l" d="M633.58,316.626a1.379,1.379,0,0,1,.931-.626" transform="translate(-521.57 -258.922)"/><path class="l" d="M630.291,320.826a1.379,1.379,0,0,0-.931-.626" transform="translate(-518.231 -262.246)"/><circle class="b" cx="0.1" cy="0.1" r="0.1" transform="translate(110.695 57.349)"/><circle class="b" cx="0.1" cy="0.1" r="0.1" transform="translate(112.83 56.988)"/><path class="l" d="M632.46,321.786a1.379,1.379,0,0,1,.931-.626" transform="translate(-520.684 -263.006)"/><circle class="b" cx="0.1" cy="0.1" r="0.1" transform="translate(112.596 58.06)"/><circle class="b" cx="0.1" cy="0.1" r="0.1" transform="translate(111.021 57.86)"/><path class="m" d="M622.2,327.92a3.45,3.45,0,0,0,1.181-.436c.248-.25,1.369-.684,1.492-.374s1.669,1.369.626,1.555a9.162,9.162,0,0,1-2.8.125C622.39,328.667,622.2,327.92,622.2,327.92Z" transform="translate(-512.565 -267.629)"/><path class="n" d="M625.5,332.016a9.166,9.166,0,0,1-2.8.125c-.238-.094-.4-.551-.467-.762H622.2s.186.747.5.87a9.1,9.1,0,0,0,2.8-.125c.3-.054.392-.179.359-.34C625.831,331.9,625.724,331.975,625.5,332.016Z" transform="translate(-512.565 -271.093)"/><path class="b" d="M736.1,323.06s-.309.4.142,1.01.822,1.12.672,1.5c0,0-.68-1.129-1.231-1.146S735.489,323.738,736.1,323.06Z" transform="translate(-602.15 -264.509)"/><path class="c" d="M736.1,323.06a.5.5,0,0,0-.062.127c-.54.626-.835,1.225-.309,1.239.482.015,1.062.878,1.2,1.1a.467.467,0,0,1-.017.05s-.68-1.129-1.231-1.146S735.489,323.738,736.1,323.06Z" transform="translate(-602.15 -264.509)"/><path class="o" d="M736,325.176c0,.142.017.257.035.257s.036-.115.036-.257-.021-.075-.04-.075S736,325.034,736,325.176Z" transform="translate(-602.62 -266.111)"/><path class="o" d="M734.717,325.959c.125.069.234.108.242.092s-.083-.086-.209-.154-.075-.019-.086,0S734.6,325.89,734.717,325.959Z" transform="translate(-601.545 -266.726)"/><path class="b" d="M743.3,323.06s.309.4-.142,1.01-.822,1.12-.672,1.5c0,0,.68-1.129,1.231-1.146S743.9,323.738,743.3,323.06Z" transform="translate(-607.722 -264.509)"/><path class="c" d="M743.36,323.06a.5.5,0,0,1,.063.127c.54.626.835,1.225.309,1.239-.482.015-1.062.878-1.2,1.1a.467.467,0,0,0,.017.05s.68-1.129,1.231-1.146S743.968,323.738,743.36,323.06Z" transform="translate(-607.787 -264.509)"/><path class="o" d="M748.981,325.176c0,.142-.017.257-.036.257s-.035-.115-.035-.257.021-.075.04-.075S748.981,325.034,748.981,325.176Z" transform="translate(-612.836 -266.111)"/><path class="o" d="M749.27,325.959c-.125.069-.234.108-.242.092s.083-.086.209-.154.075-.019.086,0S749.4,325.89,749.27,325.959Z" transform="translate(-612.929 -266.726)"/><path class="m" d="M736.627,333.09a3.21,3.21,0,0,1-1.12-.209c-.259-.182-1.325-.4-1.39-.108s-1.294,1.473-.321,1.481a8.266,8.266,0,0,0,2.519-.309C736.573,333.789,736.627,333.09,736.627,333.09Z" transform="translate(-600.58 -272.081)"/><path class="n" d="M733.792,335.89a8.542,8.542,0,0,0,2.518-.309c.2-.121.275-.551.3-.751h.029s-.054.695-.313.851a8.264,8.264,0,0,1-2.519.309c-.282,0-.378-.1-.371-.25C733.474,335.834,733.583,335.89,733.792,335.89Z" transform="translate(-600.593 -273.823)"/><path class="p" d="M637.867,284.333a1.389,1.389,0,0,0,.353.442,1.878,1.878,0,0,0,1.592.451,1.486,1.486,0,0,0,.18-.054,3.967,3.967,0,0,1,.129,2.2l-.048.693a1.967,1.967,0,0,0,.257.169l-.015.056-.029.121a2.016,2.016,0,0,0,1.742,2.537,16.546,16.546,0,0,0,3.883.323,7.752,7.752,0,0,1,2.278.163c.127.027.24.056.338.083a1.39,1.39,0,0,0,.547.035,1.33,1.33,0,0,0,.227-.052,1.283,1.283,0,0,0,.3-.14h0l.036-.023h.01l.025-.017h.01l.029-.021h0l.029-.025h0l.019-.017h0l.019-.019h0l.023-.025h0l.013-.017v-.01l.013-.017h0l.017-.023v-.054c.286-.507-.252-1.056-.252-1.056a3.547,3.547,0,0,0-2.143-.693h-.161l-.017-.029-.021-.044h.013l-.029-.029a.785.785,0,0,1-.038-.1l.013-.017-.023-.01-.025-.077.01-.017L647.15,289q-.013-.044-.023-.088l.013-.019-.021-.013a.49.49,0,0,0-.021-.1l.013-.023-.019-.013v-.04l.015-.021-.019-.01a.181.181,0,0,0-.012-.081l.012-.021-.017-.013v-.1l.017-.021-.019-.01v-.079h0v-.019a.115.115,0,0,0-.111-.109H646.9c0-.063.013-.184.027-.365v-.092h0v-.058h0q.019-.209.048-.513h0l.017-.171h0v-.179h0v-.914l.013-.1V285.8l.013-.115a1.238,1.238,0,0,0-.209-1.024v-.038h0l.046.027h0l.092.05h0l.042.023h0l.038.019h0l.079.04h0l.029.015h0l.029.015h0l.033.017h0l.025.013h.021l.023.01h0l.025.01h.075a.082.082,0,0,1,.015-.056v-.1h0v-.111h0v-.1h0v-.086h0l-.015-.038h0l-.015-.029h0l-.019-.033h0l-.019-.027h0l-.023-.029h0l-.023-.025h0l-.027-.027h0l-.027-.023h0l-.031-.023h0l-.031-.021h0l-.035-.021h0l-.035-.019h0l-.075-.035h0a1.546,1.546,0,0,0-.321-.094c-.209-.52-1.077-.029-1.077-.029v.106h-.046l-1.106.144a1.03,1.03,0,0,1-.125-.3,9.21,9.21,0,0,0-.678-1.615,2.55,2.55,0,0,0-.674-1.252l-.019-.067a4.717,4.717,0,0,1-.131-.626A1.157,1.157,0,0,0,643,279.6a1.364,1.364,0,0,0,.958-1.294,1.34,1.34,0,0,0-.027-.271.349.349,0,0,0,.209-.209,1.882,1.882,0,0,0-.273-.951l-.033-.067a1.331,1.331,0,0,0-1.7-.741,1.991,1.991,0,0,0-1.277,1.206.58.58,0,0,1-.209.338,1.053,1.053,0,0,0-.163.081.261.261,0,0,0-.077.154,5.882,5.882,0,0,0-.609.53,3.878,3.878,0,0,1-.392.369c-.309.234-.707.342-1,.6a1.738,1.738,0,0,0-.49,1.31c0,.478.108.951.142,1.429a2.061,2.061,0,0,1-.307,1.375,1.921,1.921,0,0,0-.24.34.682.682,0,0,0,.357.528Zm7.549.355-.023-.013.077-.027Zm-1.285,3.639a11.413,11.413,0,0,0,1.782-1.928,8.931,8.931,0,0,0,.071.922v.019h0v.019h0v.023h0v.025h0v.058h0c.031.2.063.472.079.609a.075.075,0,0,0-.063.073l-.017.8V289a17.6,17.6,0,0,1-1.853-.67Z" transform="translate(-524.68 -227.255)"/><path class="q" d="M664.739,318.847c.04.626.177,1.275.588,1.114a1.487,1.487,0,0,0,.326-.19,11.15,11.15,0,0,0,1.717-1.9,8.924,8.924,0,0,0,.069.908c.046.209.113.835.113.835h.835s.046-.816.25-2.585-1.429-1.089-1.429-1.089l-1.523,1.173-.949.732s0,.14-.013.346A5.375,5.375,0,0,0,664.739,318.847Z" transform="translate(-546.21 -258.775)"/><path class="c" d="M664.718,318.863c.04.626.177,1.275.588,1.114a1.486,1.486,0,0,0,.325-.19,11.149,11.149,0,0,0,1.717-1.9,8.906,8.906,0,0,0,.069.908c.033.146.077.511.1.709a.507.507,0,0,0,.015.129h.835v-.1c.019-.263.079-1.07.244-2.487.209-1.769-1.429-1.089-1.429-1.089l-1.523,1.173-.949.732s0,.14-.013.346A5.393,5.393,0,0,0,664.718,318.863Z" transform="translate(-546.19 -258.791)"/><path class="c" d="M678.22,333.424a.507.507,0,0,0,.015.129h.835v-.1l-.835-.035Z" transform="translate(-556.896 -272.707)"/><path class="r" d="M677.86,334.712l1.461.271a.9.9,0,0,1-.142-.209,2.671,2.671,0,0,1-.209-.981.111.111,0,0,0-.106-.106l-.887-.038a.073.073,0,0,0-.077.073l-.017.789Z" transform="translate(-556.611 -272.889)"/><path class="c" d="M677.86,337.98l1.461.271a.893.893,0,0,1-.142-.209,6.19,6.19,0,0,1-1.3-.263Z" transform="translate(-556.611 -276.158)"/><path class="q" d="M652.945,330.577a15.647,15.647,0,0,0,3.741.317,7.372,7.372,0,0,1,2.521.242,1.275,1.275,0,0,0,1.043-.152c.849-.553.073-1.36.073-1.36a3.378,3.378,0,0,0-2.064-.68,10.547,10.547,0,0,1-3.28-.939l-.234-.1-.094-1.16-.042-.52-.557.209-2.627,1-.129.538-.029.119A1.971,1.971,0,0,0,652.945,330.577Z" transform="translate(-535.529 -267.01)"/><path class="c" d="M651.267,332.539l.029-.119.129-.538.084-.031-.1.417-.029.119a1.977,1.977,0,0,0,1.669,2.5,15.647,15.647,0,0,0,3.741.317,7.372,7.372,0,0,1,2.521.221,1.275,1.275,0,0,0,1.043-.152,1.09,1.09,0,0,0,.209-.173.912.912,0,0,1-.323.334,1.275,1.275,0,0,1-1.043.152,7.373,7.373,0,0,0-2.521-.242,15.632,15.632,0,0,1-3.741-.317A1.965,1.965,0,0,1,651.267,332.539Z" transform="translate(-535.528 -271.465)"/><path class="s" d="M655,290.721h0l1.461.179.7.227s-.021-.063-.052-.169a2.754,2.754,0,0,1,.052-1.961c.476-.749-1.252,0-1.252,0a1.78,1.78,0,0,1-.676,1.532,2.535,2.535,0,0,1-.227.173Z" transform="translate(-538.521 -237.29)"/><path class="s" d="M671.34,313.971l2.064-.271s1.2.023.952.951a5.6,5.6,0,0,1-1.066-.59l-1.406.522Z" transform="translate(-551.451 -257.102)"/><path class="c" d="M671.34,313.963l.545.611.728-.269.678-.252c.117.083.234.159.344.225a5.383,5.383,0,0,0,.722.365c.186-.689-.428-.881-.757-.933a1.564,1.564,0,0,0-.194-.021l-.835.109Z" transform="translate(-551.451 -257.094)"/><circle class="s" cx="1.337" cy="1.337" r="1.337" transform="translate(116.894 49.735)"/><path class="c" d="M651.59,324.688a1.805,1.805,0,0,0,2.713-.835l.046-.048a1.426,1.426,0,0,1,.586-.34,1.2,1.2,0,0,1,.417-.042,7.685,7.685,0,0,1-.06-.878c0-.148,0-.307.012-.465l-.949.732s0,.14-.013.346l-2.623.991Z" transform="translate(-535.822 -263.734)"/><path class="c" d="M655.07,297.346l1.461.179.7.227s-.021-.063-.052-.169l-.031-.031a1.4,1.4,0,0,0-.807-.432,1.729,1.729,0,0,1-.286-.048,1,1,0,0,0-.747.079,1.026,1.026,0,0,0-.227.173Z" transform="translate(-538.576 -243.913)"/><path class="t" d="M648.951,304.159l-.046.68a1.84,1.84,0,0,0,2.9-.7,1.35,1.35,0,0,1,1.043-.432,7.659,7.659,0,0,1-.06-.878,5.062,5.062,0,0,1,.06-.889,11.839,11.839,0,0,0-.138-2.456l-.029-.209a2.533,2.533,0,0,0-.732-1.477,1.4,1.4,0,0,0-.808-.432,1.73,1.73,0,0,1-.286-.048,1.04,1.04,0,0,0-1.273.7,6.283,6.283,0,0,0-.545,1.461s-.935,1.638-.363,2.314C649.3,302.514,648.951,304.159,648.951,304.159Z" transform="translate(-533.371 -244.105)"/><path class="c" d="M677.25,313.841l.04.5.678-.252c.117.083.234.159.344.225a1.4,1.4,0,0,0,0-.451.55.55,0,0,0-.031-.117,1.575,1.575,0,0,0-.194-.021Z" transform="translate(-556.128 -257.126)"/><path class="s" d="M675.25,314.913l.44-.209.353-.171.453-.417a1.189,1.189,0,0,0,.271-1.043c-.113-.68-1.066-.136-1.066-.136l.069.885a.331.331,0,0,1-.173.131.832.832,0,0,1-.208.05Z" transform="translate(-554.545 -256.335)"/><path class="c" d="M639.934,284.179a1.88,1.88,0,0,1,.232-.336,2.06,2.06,0,0,0,.3-1.352c-.031-.469-.138-.935-.136-1.4a1.728,1.728,0,0,1,.472-1.287c.277-.255.659-.361.958-.59a3.756,3.756,0,0,0,.378-.363,5.693,5.693,0,0,1,.586-.522.259.259,0,0,1,.075-.152.986.986,0,0,1,.159-.079.571.571,0,0,0,.2-.334,1.934,1.934,0,0,1,1.231-1.185,1.39,1.39,0,0,1,.977.027,1.448,1.448,0,0,1,.676.72,1.874,1.874,0,0,1,.263.935c-.069.238-.328.284-.553.282a2.808,2.808,0,0,0-.209.209,1.472,1.472,0,0,0-.227.29,1.751,1.751,0,0,0-.1.926,1.021,1.021,0,0,1-.269.868,1.719,1.719,0,0,1-.221.136,2.535,2.535,0,0,0-1.043,1.534,17.2,17.2,0,0,1-.518,1.83,2.071,2.071,0,0,1-1.308,1.283,1.788,1.788,0,0,1-1.546-.455A.9.9,0,0,1,639.934,284.179Z" transform="translate(-526.561 -227.662)"/><path class="u" d="M639.828,283.969a1.884,1.884,0,0,1,.232-.336,2.06,2.06,0,0,0,.3-1.352c-.031-.469-.138-.935-.136-1.4a1.728,1.728,0,0,1,.472-1.287c.277-.255.659-.361.958-.59a3.766,3.766,0,0,0,.378-.363,5.687,5.687,0,0,1,.586-.522.259.259,0,0,1,.075-.152.986.986,0,0,1,.159-.079.571.571,0,0,0,.2-.334,1.934,1.934,0,0,1,1.231-1.185,1.39,1.39,0,0,1,.977.027,1.448,1.448,0,0,1,.676.72,1.873,1.873,0,0,1,.263.935c-.069.238-.328.284-.553.282a2.807,2.807,0,0,0-.209.209,1.474,1.474,0,0,0-.227.29,1.751,1.751,0,0,0-.1.926,1.021,1.021,0,0,1-.269.868,1.716,1.716,0,0,1-.221.136,2.535,2.535,0,0,0-1.043,1.534,17.185,17.185,0,0,1-.517,1.83,2.071,2.071,0,0,1-1.308,1.283,1.788,1.788,0,0,1-1.534-.444A.92.92,0,0,1,639.828,283.969Z" transform="translate(-526.479 -227.496)"/><path class="c" d="M660.464,305.958a6.7,6.7,0,0,0,1.55,1.8,5.068,5.068,0,0,1,.061-.889,11.836,11.836,0,0,0-.138-2.456c-.192-.4-.361-.72-.361-.72a.779.779,0,0,0-1.252.394,1.93,1.93,0,0,0,.14,1.872Z" transform="translate(-542.593 -249.037)"/><path class="c" d="M675.25,319.581l.44-.209a.822.822,0,0,0-.092-.743.833.833,0,0,1-.209.05Z" transform="translate(-554.545 -261.003)"/><path class="t" d="M660.738,303.663a1.926,1.926,0,0,0,.142,1.878c.476.728,1.252,1.786,1.838,1.932a3.03,3.03,0,0,0,1.02.182s.657-.885.113-1.406c0,0-.835-.294-1-.974a12.366,12.366,0,0,0-.862-1.995A.773.773,0,0,0,660.738,303.663Z" transform="translate(-542.919 -248.703)"/><path class="c" d="M662.8,334.22s.069.227-.5.453a2.092,2.092,0,0,0-.908.951" transform="translate(-543.577 -273.341)"/><g class="v" transform="translate(122.184 60.913)"><path d="M585.929,293.044l.01-.021-.188-.1.1-.129-.163-.077.1-.144-.123-.081.088-.119-.154-.086.125-.159-.148-.086-.01.021.125.073-.125.159.154.083-.086.119.123.081-.1.148.163.077-.1.125Z" transform="translate(-585.56 -292.015)"/><path d="M585.783,292.934l.119-.1-.152-.146.065-.1-.134-.108.075-.142-.1-.063.069-.119-.136-.106.109-.121-.017-.015-.125.14.14.108-.071.119.1.065-.073.14.129.109-.063.094.146.142-.1.081Z" transform="translate(-585.56 -291.92)"/></g><path class="q" d="M586.039,293.044l.01-.021-.188-.1.1-.129-.163-.077.1-.144-.123-.081.088-.119-.154-.086.125-.159-.148-.086-.01.021.125.073-.125.159.154.083-.086.119.123.081-.1.148.163.077-.094.125Z" transform="translate(-463.463 -231.102)"/><path class="q" d="M585.893,292.934l.117-.1-.15-.146.063-.1-.131-.108.075-.142-.1-.063.069-.119-.136-.106.108-.121-.017-.015-.125.14.14.108-.071.119.1.065-.073.14.129.109-.063.094.146.142-.1.081Z" transform="translate(-463.463 -231.007)"/><path class="c" d="M643.419,278.466a.572.572,0,0,1-.2.334.993.993,0,0,0-.159.079.258.258,0,0,0-.075.152,5.688,5.688,0,0,0-.586.522,3.765,3.765,0,0,1-.378.363c-.3.23-.68.336-.958.59a1.727,1.727,0,0,0-.471,1.287c0,.472.1.935.136,1.4a2.059,2.059,0,0,1-.3,1.352,1.876,1.876,0,0,0-.232.336.563.563,0,0,0-.046.232.853.853,0,0,1-.271-.891,1.884,1.884,0,0,1,.232-.336,2.06,2.06,0,0,0,.3-1.352c-.031-.47-.138-.935-.136-1.4a1.727,1.727,0,0,1,.472-1.287c.278-.255.659-.361.958-.59a3.769,3.769,0,0,0,.378-.363,5.7,5.7,0,0,1,.586-.522.259.259,0,0,1,.075-.152.991.991,0,0,1,.159-.079.572.572,0,0,0,.2-.334,1.934,1.934,0,0,1,1.231-1.185C644.659,276.523,643.628,277.909,643.419,278.466Z" transform="translate(-526.523 -227.756)"/><path class="w" d="M684.04,231.853l.023.115.265,1.3.319,1.688s.161.958,0,1.171a17.8,17.8,0,0,0,.34,3.107l.19,1.325v.033a.511.511,0,0,0-.136.175,1.987,1.987,0,0,1-.359.805h0a.371.371,0,0,0-.081.244.4.4,0,0,0,.4.388h.759a.417.417,0,0,0,.328-.159l.186-.242a.394.394,0,0,0,.081-.259.387.387,0,0,0-.021-.119,2.951,2.951,0,0,1-.171-.747.209.209,0,0,0-.063-.138v-.044a3.153,3.153,0,0,1,.05-1.446,9.01,9.01,0,0,0,.046-2.516,4.573,4.573,0,0,1,.123-1.4c.023-.092.046-.182.071-.263a16.237,16.237,0,0,0-.142-2.592l-.01-.111a.771.771,0,0,0,.094-.038,1.82,1.82,0,0,1,.595-.152l-.013.117a17.945,17.945,0,0,0-.163,2.8c.029.094.056.209.083.313a4.395,4.395,0,0,1,.113,1.327A8.995,8.995,0,0,0,687,239.07a3.094,3.094,0,0,1,.05,1.45v.044a.225.225,0,0,0-.062.144,3.1,3.1,0,0,1-.184.772.316.316,0,0,0-.017.1.32.32,0,0,0,.067.209l.209.275a.417.417,0,0,0,.328.159h.76a.4.4,0,0,0,.4-.388.372.372,0,0,0-.081-.244h0a1.986,1.986,0,0,1-.359-.805.511.511,0,0,0-.135-.175v-.033l.19-1.325a17.821,17.821,0,0,0,.34-3.107c-.161-.211,0-1.171,0-1.171l.319-1.688.209-1.043.023-.115h.348l.029-.01h.017l.025-.015h.015l.021-.017.013-.01.017-.019.01-.013.013-.021h0v-.015a.722.722,0,0,1,.626-.378h.225v-.021h0V231.6h0v-.017h0c-.052-.23-.248-1.072-.522-2a2.573,2.573,0,0,0,.056-.39l-.14-3.276a1.923,1.923,0,0,0,.359-.1s.09-.835.086-1.621c0-.68-.058-1.344-.307-1.408a1.693,1.693,0,0,0-.223-.035v-.04c-.129-1.01-.275-1.089-1.461-1.269a1.147,1.147,0,0,1-1.033-.751v-.031a1.309,1.309,0,0,0,.232-.209,1.49,1.49,0,0,0,.591-1.181,1.462,1.462,0,0,0-.1-.534.812.812,0,0,0-.346-.664l-.05-.033a.814.814,0,0,1,.284.469,1.567,1.567,0,0,0-.755-.636.8.8,0,0,0,.148-.463.86.86,0,0,0-1.719,0,.8.8,0,0,0,.125.417.828.828,0,0,1-.081-.115.805.805,0,0,1,.277-1.093l-.054.027a.807.807,0,0,0-.33,1.123.832.832,0,0,0,.177.209,1.5,1.5,0,0,0-.734,1.279,1.46,1.46,0,0,0,.34.939.891.891,0,0,1-.92,0l.046.035a.891.891,0,0,0,.945.05q.054.056.113.106a1.319,1.319,0,0,0,.557.4v.035c-.163.572-.822.814-1.221.91a1.075,1.075,0,0,0-.845,1.11h0v.038a.626.626,0,0,0-.269.108,3.3,3.3,0,0,0-.148,1.348c0,.755.048,1.567.048,1.567.056-.123.253-.188.48-.209-.017.449-.04.835-.04.835l-.459,2.921s-.44,1.112-.161,1.189a.161.161,0,0,0,.136-.042c-.15.791-.236,1.383-.236,1.383A3.13,3.13,0,0,1,684.04,231.853Zm4.91-4.812a2.5,2.5,0,0,1-.184-1.538,1.038,1.038,0,0,1,.123.042,12.971,12.971,0,0,1,.063,1.5Z" transform="translate(-560.884 -180.223)"/><path class="x" d="M699.92,289.923c.027.094.054.209.079.313a4.563,4.563,0,0,1,.109,1.323,9.45,9.45,0,0,0,.042,2.533,3.221,3.221,0,0,1,.048,1.446c-.025.209-.048.353-.048.353l.9-.1.029-.209.182-1.321a18.643,18.643,0,0,0,.326-3.1c-.152-.209,0-1.166,0-1.166l.307-1.682.209-1.043.236-1.2-2.16.152s-.042.382-.094.9A18.686,18.686,0,0,0,699.92,289.923Z" transform="translate(-574.051 -235.245)"/><path class="x" d="M686.82,286l.186.945.255,1.292.307,1.682s.152.956,0,1.166a18.625,18.625,0,0,0,.326,3.1l.182,1.321.029.209.9.1s-.023-.146-.048-.357a3.289,3.289,0,0,1,.048-1.442,9.457,9.457,0,0,0,.044-2.5,4.749,4.749,0,0,1,.119-1.4c.023-.092.044-.182.067-.261a16.717,16.717,0,0,0-.136-2.585c-.058-.626-.113-1.106-.113-1.106Z" transform="translate(-563.701 -235.182)"/><circle class="y" cx="0.822" cy="0.822" r="0.822" transform="translate(124.686 36.344)"/><path class="y" d="M694.06,216.9l.05-.027a.822.822,0,0,0,.8,1.429l-.048.029a.822.822,0,0,1-.8-1.433Z" transform="translate(-569.118 -180.476)"/><path class="y" d="M688.834,228.972l-.044-.035a.822.822,0,0,0,.977-1.317l.048.033a.823.823,0,0,1-.981,1.321Z" transform="translate(-565.26 -188.983)"/><path class="y" d="M699.044,224.942l-.044-.035a.822.822,0,0,0,.977-1.317l.048.033a.823.823,0,0,1-.981,1.321Z" transform="translate(-573.34 -185.794)"/><circle class="y" cx="1.511" cy="1.511" r="1.511" transform="translate(124.093 37.51)"/><path class="x" d="M684.083,242.775c.267.077.766-1.148.766-1.148l.956-2.907-.029-1.014-.067-2.193,2.848.077s.536,1.377.726,1.759a1.1,1.1,0,0,1,.077.288,13.508,13.508,0,0,1,.075,1.815l.209,2.045s.019,1.014.363.822.382-.993.382-.993l-.136-3.295v-.113a22.916,22.916,0,0,0-.062-2.831q-.013-.121-.025-.227c-.123-1.008-.263-1.085-1.39-1.264a1.1,1.1,0,0,1-.987-.749,1.183,1.183,0,0,1-.046-.495s-1.3-1.014-1.148.209a1.107,1.107,0,0,1-.025.434,1.505,1.505,0,0,1-1.168.906,1.066,1.066,0,0,0-.81,1.106h0a1.628,1.628,0,0,0,.071.373,9.429,9.429,0,0,0,.038,1.148,10.257,10.257,0,0,1,0,1.177c-.017.5-.042.964-.042.964l-.44,2.907S683.816,242.7,684.083,242.775Z" transform="translate(-561.463 -192.416)"/><path class="c" d="M696.41,233a1.252,1.252,0,0,0,1.219-.15,1.181,1.181,0,0,1-.046-.495s-1.3-1.014-1.148.209A1.108,1.108,0,0,1,696.41,233Z" transform="translate(-571.29 -192.416)"/><circle class="x" cx="1.262" cy="1.262" r="1.262" transform="translate(124.331 38.111)"/><path class="c" d="M701.11,331.126l.9-.1.029-.209a1.011,1.011,0,0,0-.449-.209c-.073-.025-.253.058-.376.123a.211.211,0,0,0-.054.042C701.133,330.982,701.11,331.126,701.11,331.126Z" transform="translate(-575.01 -270.482)"/><path class="z" d="M700.739,330.783a.84.84,0,0,1,.574.382,2.028,2.028,0,0,0,.344.8h0a.388.388,0,0,1-.309.626h-.726a.388.388,0,0,1-.313-.159l-.209-.275a.328.328,0,0,1-.046-.3,3.2,3.2,0,0,0,.175-.77.226.226,0,0,1,.119-.19C700.486,330.841,700.666,330.758,700.739,330.783Z" transform="translate(-574.161 -270.617)"/><path class="c" d="M692.82,330.724l.029.209.9.1s-.023-.146-.048-.357a.209.209,0,0,0-.046-.031c-.123-.065-.309-.152-.384-.127A1.011,1.011,0,0,0,692.82,330.724Z" transform="translate(-568.449 -270.404)"/><path class="z" d="M691.209,330.693a.84.84,0,0,0-.574.382,2.028,2.028,0,0,1-.344.8h0a.388.388,0,0,0,.309.626h.726a.388.388,0,0,0,.313-.159l.177-.242a.4.4,0,0,0,.058-.367,3.049,3.049,0,0,1-.165-.745.209.209,0,0,0-.111-.175C691.466,330.754,691.278,330.668,691.209,330.693Z" transform="translate(-566.384 -270.546)"/><path class="c" d="M700.844,286.25s-.042.382-.094.9c.4-.048.807-.015.9-.04s.67.165,1.123.186l.236-1.2Z" transform="translate(-574.725 -235.261)"/><path class="c" d="M686.82,286l.186.945a1.076,1.076,0,0,1,.559.088,2.049,2.049,0,0,0,1.527.225c-.058-.626-.113-1.106-.113-1.106Z" transform="translate(-563.701 -235.182)"/><path class="aa" d="M689.492,254.909a2.489,2.489,0,0,0,0,2.448,23.85,23.85,0,0,1,1.319,4.3s-.651-.056-.822.382-1.511-.038-1.644,0a4.307,4.307,0,0,0-1.461.192,1.988,1.988,0,0,1-1.607-.192c-.192-.173-1.337-.038-1.337-.038s.611-4.474,1.473-5.239c0,0,.515-.626-.134-1.682S689.492,254.909,689.492,254.909Z" transform="translate(-561.422 -210.305)"/><path class="c" d="M686.985,246.134a9.44,9.44,0,0,0,.038,1.148,10.229,10.229,0,0,1,0,1.177,2.977,2.977,0,0,1,.8,0,.8.8,0,0,0,.257-.019,1.971,1.971,0,0,0,.928-.382c.192-.23.8.152.937.248a2.293,2.293,0,0,0,1.148.038.751.751,0,0,1,.574.021,1.08,1.08,0,0,1,.3.19.72.72,0,0,0,.6.1,22.916,22.916,0,0,0-.063-2.831q-.012-.121-.025-.227c-.805-.09-2.975-.061-2.975-.061a19.824,19.824,0,0,0-2.594.209,1.633,1.633,0,0,0,.075.392Z" transform="translate(-563.773 -203.155)"/><ellipse class="c" cx="1.156" cy="0.67" rx="1.156" ry="0.67" transform="translate(124.362 37.835)"/><ellipse class="y" cx="1.156" cy="0.67" rx="1.156" ry="0.67" transform="translate(124.362 37.796)"/><path class="c" d="M704.194,240.638c-.038,0-1.033,0-1.2-.038" transform="translate(-576.497 -199.255)"/><path class="c" d="M691.955,241.548a3.453,3.453,0,0,1-.785-.038" transform="translate(-567.144 -199.975)"/><path class="ab" d="M698.659,245s-.5.263-.526.53c0,0-.188-.5-.453-.52" transform="translate(-572.295 -202.737)"/><path class="c" d="M700.168,336.567l.209.275a.388.388,0,0,0,.313.159h.726a.388.388,0,0,0,.388-.361.388.388,0,0,1-.388.417h-.726a.388.388,0,0,1-.313-.159l-.209-.275a.328.328,0,0,1-.063-.223.327.327,0,0,0,.063.167Z" transform="translate(-574.213 -275.066)"/><path class="c" d="M690.524,336.869h.726a.388.388,0,0,0,.313-.159l.177-.242a.418.418,0,0,0,.077-.209.418.418,0,0,1-.077.269l-.173.24a.388.388,0,0,1-.313.159h-.73a.388.388,0,0,1-.388-.417A.388.388,0,0,0,690.524,336.869Z" transform="translate(-566.324 -274.955)"/><g class="ac" transform="translate(122.512 44.293)"><path d="M685.389,256.894s.515-.626-.134-1.682c-.173-.28.044-.417.453-.482-.071.077-.075.177,0,.309a1.446,1.446,0,0,1,.134,1.682c-.86.766-1.473,5.239-1.473,5.239s1.148-.134,1.337.038a2,2,0,0,0,1.607.192,4.319,4.319,0,0,1,1.461-.192c.09-.025.72.182,1.179.188-.2.417-1.5-.052-1.638-.015a4.308,4.308,0,0,0-1.461.192,1.988,1.988,0,0,1-1.607-.192c-.192-.173-1.337-.038-1.337-.038S684.536,257.66,685.389,256.894Z" transform="translate(-683.91 -254.73)"/><path d="M716.056,288.05l.023.106a1.229,1.229,0,0,0-.209,0A.67.67,0,0,1,716.056,288.05Z" transform="translate(-709.201 -281.098)"/></g><path class="c" d="M688.06,246.212a28.308,28.308,0,0,1,3.193.1c.5.134.209,2.921.209,2.921s-.626.267-.937,0a.87.87,0,0,0-.878-.209,2.318,2.318,0,0,1-1.148-.038c-.133-.094-.745-.478-.937-.248a2.139,2.139,0,0,1-1.185.4c-.171-.04-1.129-.1-1.252.209a11.015,11.015,0,0,1,.1-2.811A11.45,11.45,0,0,1,688.06,246.212Z" transform="translate(-562.323 -203.692)"/><path class="aa" d="M688.06,245.752a28.3,28.3,0,0,1,3.193.1c.5.134.209,2.921.209,2.921s-.626.267-.937,0a.87.87,0,0,0-.878-.209,2.318,2.318,0,0,1-1.148-.038c-.133-.094-.745-.478-.937-.248a2.139,2.139,0,0,1-1.185.4c-.171-.04-1.129-.1-1.252.209a11.015,11.015,0,0,1,.1-2.811A11.45,11.45,0,0,1,688.06,245.752Z" transform="translate(-562.323 -203.328)"/><rect class="ad" width="49.02" height="49.02" transform="translate(98.572 86.386)"/><rect class="h" width="47.576" height="47.576" transform="translate(146.87 134.685) rotate(180)"/><rect class="j" width="43.242" height="32.404" transform="translate(144.704 121.68) rotate(180)"/><ellipse class="a" cx="7.535" cy="1.148" rx="7.535" ry="1.148" transform="translate(125.917 116.463)"/><circle class="ae" cx="1.782" cy="1.782" r="1.782" transform="translate(107.463 92.103)"/><path class="b" d="M751.377,572.16s-.186.242.085.607.495.674.4.9c0,0-.417-.678-.741-.689S751.012,572.569,751.377,572.16Z" transform="translate(-614.462 -461.633)"/><path class="c" d="M751.406,572.16a.3.3,0,0,0-.038.075c-.323.382-.5.737-.186.745s.638.528.722.659v.029s-.417-.678-.741-.689S751.041,572.569,751.406,572.16Z" transform="translate(-614.491 -461.633)"/><path class="o" d="M751.29,573.431c0,.086,0,.154.021.154s.021-.069.021-.154-.013-.046-.023-.046S751.29,573.346,751.29,573.431Z" transform="translate(-614.719 -462.595)"/><path class="o" d="M750.551,573.911c.075.042.14.065.146.054s-.05-.052-.125-.092-.046-.01-.05,0S750.476,573.869,750.551,573.911Z" transform="translate(-614.099 -462.973)"/><path class="b" d="M755.7,572.16s.186.242-.086.607-.494.674-.4.9c0,0,.417-.678.741-.689S756.064,572.569,755.7,572.16Z" transform="translate(-617.805 -461.633)"/><path class="c" d="M755.739,572.16a.3.3,0,0,1,.038.075c.323.382.5.737.186.745s-.638.528-.722.659v.029s.417-.678.741-.689S756.1,572.569,755.739,572.16Z" transform="translate(-617.845 -461.633)"/><path class="o" d="M759.122,573.431c0,.086,0,.154-.021.154s-.021-.069-.021-.154.012-.046.023-.046S759.122,573.346,759.122,573.431Z" transform="translate(-620.884 -462.595)"/><path class="o" d="M759.284,573.911c-.075.042-.14.065-.146.054s.05-.052.125-.092.046-.01.05,0S759.359,573.869,759.284,573.911Z" transform="translate(-620.93 -462.973)"/><path class="m" d="M751.694,578.189a1.915,1.915,0,0,1-.674-.127c-.156-.111-.8-.244-.835-.065s-.778.887-.194.891a5.015,5.015,0,0,0,1.515-.186C751.663,578.608,751.694,578.189,751.694,578.189Z" transform="translate(-613.515 -466.182)"/><path class="n" d="M749.98,579.886a5.153,5.153,0,0,0,1.515-.186c.119-.073.165-.332.182-.451h.019s-.033.417-.188.513a4.923,4.923,0,0,1-1.515.186c-.169,0-.227-.06-.223-.15C749.79,579.851,749.855,579.884,749.98,579.886Z" transform="translate(-613.516 -467.243)"/><rect class="af" width="7.084" height="2.389" transform="translate(119.576 96.243)"/><rect class="ag" width="1.801" height="2.199" transform="translate(126.157 98.534) rotate(180)"/><rect class="ah" width="1.056" height="0.849" transform="translate(125.775 97.841) rotate(180)"/><rect class="ag" width="1.801" height="2.199" transform="translate(123.974 98.534) rotate(180)"/><rect class="ah" width="1.056" height="0.849" transform="translate(123.594 97.841) rotate(180)"/><rect class="ag" width="1.801" height="2.199" transform="translate(121.794 98.534) rotate(180)"/><rect class="ah" width="1.056" height="0.849" transform="translate(121.41 97.841) rotate(180)"/><path class="c" d="M669.84,503.7v.177h7.084V503.7Z" transform="translate(-550.264 -407.457)"/><path class="b" d="M665.588,494.336l.943-.726h4.578l.87.722h0a2.52,2.52,0,0,0,1.573.209,1.255,1.255,0,0,1-1.252,1.252h-7.094s-1.018.046-1.166-1.252A2.846,2.846,0,0,0,665.588,494.336Z" transform="translate(-545.674 -399.473)"/><rect class="af" width="10.009" height="3.378" transform="translate(117.979 101.123)"/><rect class="ag" width="2.546" height="3.109" transform="translate(127.279 104.086) rotate(180)"/><rect class="ah" width="1.494" height="1.2" transform="translate(126.741 103.105) rotate(180)"/><rect class="ag" width="2.546" height="3.109" transform="translate(124.195 104.086) rotate(180)"/><rect class="ah" width="1.494" height="1.2" transform="translate(123.657 103.105) rotate(180)"/><rect class="ag" width="2.546" height="3.109" transform="translate(121.111 104.086) rotate(180)"/><rect class="ah" width="1.494" height="1.2" transform="translate(120.573 103.105) rotate(180)"/><rect class="b" width="12.165" height="4.259" transform="translate(128.944 112.48) rotate(180)"/><rect class="af" width="12.165" height="4.259" transform="translate(128.944 112.48) rotate(180)"/><rect class="ah" width="3.67" height="4.161" transform="translate(127.672 112.382) rotate(180)"/><rect class="ag" width="2.203" height="4.161" transform="translate(126.937 112.382) rotate(180)"/><rect class="ah" width="1.102" height="2.961" transform="translate(126.447 111.796) rotate(180)"/><rect class="ah" width="3.67" height="4.161" transform="translate(121.773 112.382) rotate(180)"/><rect class="ag" width="2.203" height="4.161" transform="translate(121.038 112.382) rotate(180)"/><rect class="ah" width="1.102" height="2.961" transform="translate(120.55 111.796) rotate(180)"/><path class="b" d="M655.125,547.446v-4.071a2.7,2.7,0,0,0,2.422-2.658,5.393,5.393,0,0,1-3.363-.465h0l-1.859-1.542h-9.78l-2.02,1.557a6.083,6.083,0,0,1-3.316.451c.29,2.521,2.124,2.662,2.447,2.669v4.063m0,0h15.468m-.858,0H640.5m0,0v-4.065h13.771v4.063" transform="translate(-524.443 -435.162)"/><rect class="c" width="10.009" height="0.434" transform="translate(117.979 101.123)"/><path class="b" d="M654.507,513.952l1.356-1.1h7.074l1.252,1.091h0a3.816,3.816,0,0,0,2.379.33,1.89,1.89,0,0,1-1.9,1.878H653.927s-1.542.069-1.767-1.878A4.3,4.3,0,0,0,654.507,513.952Z" transform="translate(-536.273 -414.698)"/><rect class="c" width="12.165" height="0.123" transform="translate(128.957 108.334) rotate(180)"/><path class="c" d="M666.757,546.16H653.1a102.791,102.791,0,0,0,13.657,0Z" transform="translate(-537.017 -441.058)"/><path class="c" d="M673.185,518H663.42A52.633,52.633,0,0,0,673.185,518Z" transform="translate(-545.184 -418.774)"/><path class="c" d="M677.812,497H671.4A22.769,22.769,0,0,0,677.812,497Z" transform="translate(-551.499 -402.155)"/><rect class="ah" width="34.038" height="0.918" transform="translate(138.958 113.167) rotate(180)"/><path class="ai" d="M723.3,522.756a1.742,1.742,0,0,0,1.832.768,2.018,2.018,0,0,0,.542,0,.686.686,0,0,0,.2-.073.489.489,0,0,0,.271-.265.668.668,0,0,0-.261-.672,1.957,1.957,0,0,1-.524-.553c-.142-.311-.027-.705-.209-1a.306.306,0,0,0-.146-.134.652.652,0,0,0-.25,0,.9.9,0,0,1-.757-.536c-.152-.288-.209-.616-.355-.91a1.538,1.538,0,0,0-.76-.774,5.411,5.411,0,0,0-.626-.177,7.338,7.338,0,0,0-.705-.219.88.88,0,0,0-.582.073.57.57,0,0,0-.165.109c-.167.161-.209.417-.376.58a.628.628,0,0,0-.167.209c-.044.121.071.173.19.209a1.136,1.136,0,0,0-.142.553,1.148,1.148,0,0,0,1.016,1.139l.031.054h0a3.223,3.223,0,0,1,.188.384.769.769,0,0,0-.056.361.418.418,0,0,0,.173.257,1.745,1.745,0,0,0-.417.346,1.024,1.024,0,0,1-.444.34l-.054.017a.626.626,0,0,0-.367.78,4.042,4.042,0,0,1-.159,1.582l-.106.791v.027l-.952.626s-1.511.5-1.006,1.081,1.3-.626,1.3-.626l.586-.269-.015.138a12.418,12.418,0,0,1-.361,2.109h0l-.194.728-.344,1.609a1.54,1.54,0,0,0,0,1.054l-.609,1.976h0v.027h0a6.713,6.713,0,0,1-.392,1.087h0l-.031.054h0l-.017.025h0v.01h0a.15.15,0,0,0-.184.031.508.508,0,0,0-.071.094,1.714,1.714,0,0,1-1.06.29c-.159-.052-.716-.106-.582.29s2.516.974,2.516.974a1.223,1.223,0,0,0,.238-.626,3,3,0,0,1,0-.528.986.986,0,0,1-.111.086v-.044l.017-.069h0v-.079h0v-.067h0l.01-.037h0v-.04l.01-.033h0l.013-.038v-.05l.013-.033h0l.012-.031v-.048l.015-.031h0l.01-.023v-.012l.01-.021h0l.015-.027h0l.01-.019h0l.012-.019h0l.017-.023h0L719,535.5h0l.017-.017a14.08,14.08,0,0,0,.9-2.03l.209-1.292a8.529,8.529,0,0,1,1.06-2.014l.953,1.592a9.262,9.262,0,0,0,.847,1.029,14.875,14.875,0,0,0,1.139,1.924,1.534,1.534,0,0,1,.288,1.01.9.9,0,0,1-.01.173.663.663,0,0,1-.355.417c-.4.159-.953.417-.768.659a1.4,1.4,0,0,0,1.377.263,9.872,9.872,0,0,0,1.35-.626l-.286-1.123a1.775,1.775,0,0,1-.094.169l-.033-.044a9.811,9.811,0,0,1-.561-1.392,4.444,4.444,0,0,0-1.252-2.372l-.417-.835-.444-1.728a2.725,2.725,0,0,0,.265-.129.194.194,0,0,0,.311.01c.53-.474-.106-1.634-.106-1.634s-.027-.58,0-1a5.3,5.3,0,0,0-.238-1.292l-.175-1.091.227-.649A3.375,3.375,0,0,0,723.3,522.756Zm-.586,3.6a2.26,2.26,0,0,1,.121.743,1.428,1.428,0,0,0-.307-.348s-.528-.818-.14-1.415c.042-.065.081-.129.123-.2A4.6,4.6,0,0,0,722.715,526.353Z" transform="translate(-586.921 -418.926)"/><path class="aj" d="M746.848,546l.209,1.287a5.218,5.218,0,0,1,.234,1.252c-.025.4,0,.979,0,.979s.626,1.133.1,1.6-.672-1.461-.672-1.461a3.4,3.4,0,0,0-.1-1.252,5.37,5.37,0,0,1-.209-1.39Z" transform="translate(-610.857 -440.931)"/><path class="ab" d="M746.848,546l.209,1.287a5.218,5.218,0,0,1,.234,1.252c-.025.4,0,.979,0,.979s.626,1.133.1,1.6-.672-1.461-.672-1.461a3.4,3.4,0,0,0-.1-1.252,5.37,5.37,0,0,1-.209-1.39Z" transform="translate(-610.857 -440.931)"/><path class="aj" d="M726.834,567.2l-.359,1.34-.336,1.571a1.506,1.506,0,0,0,0,1.031l-.595,1.93s-.336,1.235-.542,1.252.209.979.209.979l.57-.334a2.6,2.6,0,0,1,.363-.954,13.32,13.32,0,0,0,.881-1.982l.209-1.252a6.7,6.7,0,0,1,1.216-2.137,2.184,2.184,0,0,0,.751-1.081Z" transform="translate(-593.87 -457.708)"/><path class="ab" d="M729.147,567.561a2.184,2.184,0,0,1-.751,1.081,6.773,6.773,0,0,0-1.216,2.137l-.209,1.252a13.235,13.235,0,0,1-.88,1.982,2.065,2.065,0,0,0-.332.814c-.021.083-.031.138-.031.138l-.57.334s-.417-.954-.209-.979c.031,0,.067-.038.1-.09a5.335,5.335,0,0,0,.44-1.171l.595-1.93a1.51,1.51,0,0,1,0-1.031l.336-1.571.367-1.327Z" transform="translate(-593.828 -457.708)"/><path class="aj" d="M742.516,576.1l-.209.488-.931-.1a2.142,2.142,0,0,0,.048-.4,1.5,1.5,0,0,0-.28-.987,14.511,14.511,0,0,1-1.112-1.878,9.032,9.032,0,0,1-.835-1l-1.289-2.164.04-.194-.348-.321h2.17l.517,2.007.417.824a4.364,4.364,0,0,1,1.216,2.318,8.7,8.7,0,0,0,.549,1.358A.373.373,0,0,0,742.516,576.1Z" transform="translate(-603.886 -459.552)"/><path class="c" d="M725.778,601.547c-.021.083-.031.138-.031.138l-.57.334s-.417-.954-.209-.979c.031,0,.067-.037.1-.09a.144.144,0,0,1,.067.161.4.4,0,0,1-.042.111c-.077.129.259.334.259.334C725.473,601.7,725.657,601.624,725.778,601.547Z" transform="translate(-593.844 -484.416)"/><path class="ak" d="M718.473,601.3a.15.15,0,0,0-.257-.136.5.5,0,0,0-.069.092,1.69,1.69,0,0,1-1.043.284c-.163-.05-.7-.1-.57.284s2.466.937,2.466.937a1.2,1.2,0,0,0,.234-.626,2.93,2.93,0,0,1,0-.515s-.363.334-.543.1c0,0-.336-.209-.259-.334A.4.4,0,0,0,718.473,601.3Z" transform="translate(-587.2 -484.55)"/><path class="c" d="M756.839,600.659l-.209.488-.931-.1a2.131,2.131,0,0,0,.048-.4.127.127,0,0,1,.209-.029c.048.052.1.106.134.15.1.129.44.052.44.052.088.029.19-.1.265-.209A.379.379,0,0,0,756.839,600.659Z" transform="translate(-618.209 -484.114)"/><path class="ak" d="M751.851,600.264a.127.127,0,0,0-.209.054.707.707,0,0,1-.376.509c-.388.154-.931.417-.751.643a1.4,1.4,0,0,0,1.346.257,9.649,9.649,0,0,0,1.319-.626l-.388-1.031s-.209.438-.363.386c0,0-.336.077-.44-.052A.79.79,0,0,1,751.851,600.264Z" transform="translate(-614.079 -483.719)"/><path class="aj" d="M740.21,529.233s.626.849.465,1.442,1.252-.386,1.252-.386a2.051,2.051,0,0,1-.595-1.7Z" transform="translate(-605.951 -427.154)"/><path class="al" d="M736.65,543.111a3.479,3.479,0,0,1-2.276.361l.025-.179h-.054c-.989.088-1.214-.209-1.214-.209a11.609,11.609,0,0,0,.351-2.059c.01-.1.021-.209.029-.29.021-.209.035-.38.046-.5s.013-.163.013-.163l.1-.772a3.9,3.9,0,0,0,.154-1.544.626.626,0,0,1,.361-.757l.052-.015a1,1,0,0,0,.434-.332,1.744,1.744,0,0,1,.726-.492c.129-.048.24-.1.24-.1.182-.209.672-.077.672-.077.595.386.284,1.648.284,1.648l-.248.7a5.22,5.22,0,0,1-.561,1.106c-.38.584.136,1.383.136,1.383C736.727,541.462,736.65,543.111,736.65,543.111Z" transform="translate(-600.348 -432.974)"/><path class="ab" d="M734.446,560.095l-.092,1.383c-.989.088-1.214-.209-1.214-.209a11.6,11.6,0,0,0,.351-2.059c.01-.1.021-.209.029-.29Z" transform="translate(-600.356 -451.155)"/><path class="c" d="M737.41,543.174s-.465.876-.626,1.252a.982.982,0,0,1-.234.386,7.861,7.861,0,0,1-.906.695l-.834.386c.035-.332.06-.626.075-.789l.8-.515s.542-.334.57-.772a5.3,5.3,0,0,1,.363-1.235s.672-.72.958-.386S737.41,543.174,737.41,543.174Z" transform="translate(-601.678 -437.85)"/><path class="aj" d="M729.311,541.965a5.3,5.3,0,0,0-.363,1.235c-.025.438-.57.772-.57.772l-1.707,1.133s-1.475.488-.983,1.056,1.267-.626,1.267-.626l1.4-.643a7.866,7.866,0,0,0,.906-.695c.077-.129.077,0,.234-.386s.626-1.252.626-1.252.44-.643.154-.979S729.311,541.965,729.311,541.965Z" transform="translate(-594.38 -437.364)"/><path class="c" d="M742.44,540.677a6.419,6.419,0,0,0,.626-.515.146.146,0,0,1,.182-.021.817.817,0,0,0,.384.063c.113,0,.223,0,.209.06-.025.129.077-.67.077-.67l-.44-.154-.57.309Z" transform="translate(-607.716 -435.74)"/><path class="al" d="M742.44,540.427a6.427,6.427,0,0,0,.626-.515.146.146,0,0,1,.182-.021.819.819,0,0,0,.384.063c.113,0,.223,0,.209.06-.025.129.077-.67.077-.67l-.44-.154-.57.309Z" transform="translate(-607.716 -435.542)"/><path class="c" d="M736.6,545.22a.637.637,0,0,0,.584-.04" transform="translate(-603.094 -440.282)"/><path class="c" d="M741.248,528.725c-.019-.154.171.165.194-.013l-1.112.643s.063.088.144.225a1.135,1.135,0,0,0,.127,0C740.937,529.582,741.044,528.956,741.248,528.725Z" transform="translate(-606.046 -427.226)"/><ellipse class="aj" cx="1.125" cy="1.12" rx="1.125" ry="1.12" transform="translate(133.405 100.069)"/><path class="c" d="M736.5,521.108a.571.571,0,0,0,.04.209.577.577,0,0,0,.234.179.958.958,0,0,1,.336,1.072.945.945,0,0,0-.075.417c.044.24.319.365.563.386a2.619,2.619,0,0,1,.73.071c.384.148.553.6.88.847a2.487,2.487,0,0,0,1.381.307,1.976,1.976,0,0,0,.53,0,.534.534,0,0,0,.407-.3.652.652,0,0,0-.255-.657,1.915,1.915,0,0,1-.511-.538c-.14-.3-.027-.689-.209-.974a.3.3,0,0,0-.142-.129.636.636,0,0,0-.246,0,.874.874,0,0,1-.741-.524c-.148-.282-.209-.6-.346-.889a1.5,1.5,0,0,0-.743-.755,5.3,5.3,0,0,0-.611-.173,7.176,7.176,0,0,0-.689-.209.776.776,0,0,0-.678.152c-.163.156-.209.4-.367.568a.627.627,0,0,0-.163.194c-.067.19.259.209.367.284A.711.711,0,0,1,736.5,521.108Z" transform="translate(-602.475 -419.898)"/><path class="am" d="M736.75,520.978a.57.57,0,0,0,.04.209.576.576,0,0,0,.234.18.958.958,0,0,1,.336,1.072.945.945,0,0,0-.075.417c.044.24.319.365.563.386a2.619,2.619,0,0,1,.73.071c.384.148.553.6.88.847a2.488,2.488,0,0,0,1.381.307,1.973,1.973,0,0,0,.53,0,.534.534,0,0,0,.407-.3.652.652,0,0,0-.255-.657,1.915,1.915,0,0,1-.511-.538c-.14-.3-.027-.689-.209-.974a.3.3,0,0,0-.142-.129.638.638,0,0,0-.246,0,.874.874,0,0,1-.741-.524c-.148-.282-.209-.6-.346-.889a1.5,1.5,0,0,0-.743-.755,5.306,5.306,0,0,0-.611-.173,7.183,7.183,0,0,0-.689-.209.776.776,0,0,0-.678.152c-.163.156-.209.4-.367.568a.626.626,0,0,0-.163.194c-.067.19.259.209.367.284A.712.712,0,0,1,736.75,520.978Z" transform="translate(-602.673 -419.795)"/><rect class="an" width="49.02" height="49.02" transform="matrix(0.133, -0.991, 0.991, 0.133, 55.801, 95.051)"/><rect class="h" width="47.576" height="47.576" transform="matrix(-0.991, -0.133, 0.133, -0.991, 103.764, 100.775)"/><rect class="j" width="43.242" height="32.404" transform="matrix(-0.991, -0.133, 0.133, -0.991, 103.351, 87.599)"/><path class="l" d="M429.537,371.21s-.835,1.21-.392,1.995-.4,2.642-.4,2.642" transform="translate(-359.471 -302.612)"/><path class="b" d="M431.872,367.51a.77.77,0,0,0,.123.478.657.657,0,0,0,.121-.908A.77.77,0,0,0,431.872,367.51Z" transform="translate(-361.948 -299.344)"/><path class="l" d="M428.871,371s.488,1.39-.148,2.028-.307,2.656-.307,2.656" transform="translate(-359.148 -302.446)"/><path class="b" d="M430.7,367.358a.77.77,0,0,1-.244.43.657.657,0,0,1,.121-.908A.77.77,0,0,1,430.7,367.358Z" transform="translate(-360.73 -299.186)"/><path class="c" d="M430.7,367.358a.77.77,0,0,1-.244.43.657.657,0,0,1,.121-.908A.77.77,0,0,1,430.7,367.358Z" transform="translate(-360.73 -299.186)"/><path class="l" d="M426.6,370.81s-.835,1.21-.392,1.995-.4,2.635-.4,2.635" transform="translate(-357.145 -302.296)"/><path class="b" d="M428.932,367.12a.77.77,0,0,0,.123.478.657.657,0,0,0,.121-.908A.77.77,0,0,0,428.932,367.12Z" transform="translate(-359.622 -299.035)"/><path class="b" d="M428.295,371.98a.77.77,0,0,0,.417.259.657.657,0,0,0-.54-.739A.77.77,0,0,0,428.295,371.98Z" transform="translate(-359.02 -302.842)"/><path class="b" d="M427.635,376.27a.77.77,0,0,0,.417.259.657.657,0,0,0-.54-.739A.77.77,0,0,0,427.635,376.27Z" transform="translate(-358.497 -306.237)"/><path class="b" d="M431.461,380.443a.77.77,0,0,0-.221.442.657.657,0,0,0,.686-.605A.77.77,0,0,0,431.461,380.443Z" transform="translate(-361.45 -309.79)"/><path class="b" d="M431.552,371.576a.77.77,0,0,0-.332.367.657.657,0,0,0,.824-.4A.77.77,0,0,0,431.552,371.576Z" transform="translate(-361.434 -302.856)"/><path class="c" d="M431.552,371.576a.77.77,0,0,0-.332.367.657.657,0,0,0,.824-.4A.77.77,0,0,0,431.552,371.576Z" transform="translate(-361.434 -302.856)"/><path class="l" d="M425.943,370.59s.488,1.39-.148,2.028-.311,2.648-.311,2.648" transform="translate(-356.829 -302.122)"/><path class="b" d="M427.764,366.968a.77.77,0,0,1-.244.43.657.657,0,0,1,.121-.908A.77.77,0,0,1,427.764,366.968Z" transform="translate(-358.403 -298.877)"/><path class="c" d="M427.764,366.968a.77.77,0,0,1-.244.43.657.657,0,0,1,.121-.908A.77.77,0,0,1,427.764,366.968Z" transform="translate(-358.403 -298.877)"/><path class="b" d="M423.756,372.838a.77.77,0,0,1,.127.478.657.657,0,1,1-.127-.478Z" transform="translate(-354.592 -303.693)"/><path class="c" d="M423.756,372.838a.77.77,0,0,1,.127.478.657.657,0,1,1-.127-.478Z" transform="translate(-354.592 -303.693)"/><path class="b" d="M421.306,378.568a.77.77,0,0,1,.127.478.657.657,0,1,1-.127-.478Z" transform="translate(-352.653 -308.228)"/><path class="l" d="M425.092,375.65s-.315-.682-.872-.77" transform="translate(-355.894 -305.517)"/><path class="l" d="M430.13,375.036a1.424,1.424,0,0,1,1.043-.513" transform="translate(-360.571 -305.231)"/><path class="l" d="M426.492,378.37s-.315-.682-.872-.77" transform="translate(-357.002 -307.669)"/><circle class="b" cx="0.104" cy="0.104" r="0.104" transform="matrix(0.133, -0.991, 0.991, 0.133, 68.228, 69.451)"/><circle class="b" cx="0.104" cy="0.104" r="0.104" transform="matrix(0.133, -0.991, 0.991, 0.133, 70.475, 69.374)"/><path class="l" d="M428.26,380.126a1.423,1.423,0,0,1,1.043-.513" transform="translate(-359.092 -309.259)"/><circle class="b" cx="0.104" cy="0.104" r="0.104" transform="matrix(0.133, -0.991, 0.991, 0.133, 70.086, 70.445)"/><circle class="b" cx="0.104" cy="0.104" r="0.104" transform="matrix(0.133, -0.991, 0.991, 0.133, 68.493, 70.022)"/><path class="m" d="M416.7,385.8a3.624,3.624,0,0,0,1.277-.284c.29-.221,1.5-.515,1.588-.177s1.54,1.642.417,1.688a9.411,9.411,0,0,1-2.9-.259C416.781,386.6,416.7,385.8,416.7,385.8Z" transform="translate(-349.944 -313.671)"/><path class="n" d="M420.007,389.228a9.444,9.444,0,0,1-2.9-.259c-.232-.129-.338-.626-.376-.849H416.7s.09.795.392.966a9.441,9.441,0,0,0,2.9.259c.321-.013.43-.131.417-.3C420.366,389.151,420.245,389.218,420.007,389.228Z" transform="translate(-349.944 -315.994)"/><path class="b" d="M566.363,415.47s-.373.371,0,1.06.691,1.269.484,1.638c0,0-.542-1.252-1.11-1.35S565.643,416.086,566.363,415.47Z" transform="translate(-467.684 -337.637)"/><path class="c" d="M566.387,415.47a.516.516,0,0,0-.081.121c-.643.578-1.02,1.148-.488,1.233.495.081.972,1.043,1.085,1.294a.48.48,0,0,1-.023.048s-.542-1.252-1.11-1.35S565.667,416.086,566.387,415.47Z" transform="translate(-467.708 -337.637)"/><path class="o" d="M566.467,417.268a.55.55,0,0,0,0,.269c.019,0,.052-.113.073-.259s0-.079-.031-.083S566.487,417.122,566.467,417.268Z" transform="translate(-468.449 -338.986)"/><path class="o" d="M565.169,417.922c.119.088.225.144.238.127s-.075-.1-.194-.188-.075-.029-.088-.013S565.05,417.834,565.169,417.922Z" transform="translate(-467.377 -339.492)"/><path class="b" d="M573.17,416.55s.261.457-.286,1.02-1,1.043-.9,1.461c0,0,.855-1.068,1.427-1.008S573.7,417.332,573.17,416.55Z" transform="translate(-472.816 -338.492)"/><path class="c" d="M573.191,416.55a.518.518,0,0,1,.048.14c.467.728.682,1.375.146,1.319-.5-.052-1.214.755-1.388.962a.5.5,0,0,0,0,.054s.856-1.068,1.427-1.008S573.723,417.332,573.191,416.55Z" transform="translate(-472.836 -338.492)"/><path class="o" d="M579.864,419.072c-.019.146-.052.263-.073.259s-.021-.123,0-.269.031-.075.05-.071S579.885,418.926,579.864,419.072Z" transform="translate(-478.992 -340.407)"/><path class="o" d="M580.061,420.082c-.138.052-.255.079-.263.06s.1-.077.236-.129.079,0,.088.01S580.2,420.028,580.061,420.082Z" transform="translate(-479.01 -341.215)"/><path class="m" d="M565.427,426.012a3.26,3.26,0,0,1-1.125-.374c-.242-.227-1.308-.6-1.415-.3s-1.536,1.34-.536,1.481a8.635,8.635,0,0,0,2.635.031C565.274,426.722,565.427,426.012,565.427,426.012Z" transform="translate(-464.924 -345.356)"/><path class="n" d="M562.354,429.679a8.635,8.635,0,0,0,2.635.031c.219-.1.361-.53.417-.73h.029s-.152.707-.44.835a8.5,8.5,0,0,1-2.635-.031c-.288-.042-.375-.156-.348-.309C562.037,429.577,562.14,429.648,562.354,429.679Z" transform="translate(-464.932 -348.328)"/><path class="ao" d="M435.21,328.338a4.615,4.615,0,1,0,6.955-3.293l-.05-.029,1.116-2.139,4.59,6.2a.985.985,0,0,0-.144.668,1.733,1.733,0,0,0-.209.086,1.437,1.437,0,0,1-.726.159s-.607.388.432.607l.058.013-.086.626,2.333.313.071-.522a11.517,11.517,0,0,0,2.212.29,4.59,4.59,0,1,0,2.087-3.987l-.054.038-.447-.605.568-.355-.939-.812a1.07,1.07,0,0,1-.117.179l-.044-.031c-.117-.086-.29-.209-.469-.357h0l-.021-.017.209-1.561v-.063a5.716,5.716,0,0,0,.686.077c1.008.042,1.219-.588.9-1.008-.257-.334-1.388-.309-1.836-.284a3.078,3.078,0,0,1-.344,0h-.054c.346-.511.835-1.185,1.417-2.2a3.277,3.277,0,0,0,.6-2.4,3.947,3.947,0,0,0-.626-2.11,6.2,6.2,0,0,1-1.488-3.059,2.076,2.076,0,0,0-1.734-1.648h0c.127-.073.2-.209.315-.294.23-.163.626-.117.745-.363.248-.52-.6-.459-.851-.526s-.209-.225-.209-.417a1.627,1.627,0,0,0-.209-.714.523.523,0,0,0-.15-.175.578.578,0,0,0-.28-.077,6.469,6.469,0,0,1-1.008-.038c-.125-.029-.246-.081-.374-.1a1.058,1.058,0,0,0-1.043.507,1.807,1.807,0,0,0-.194,1.146.845.845,0,0,0,.209.532,2,2,0,0,1,.209.184.978.978,0,0,1,.1.19,1.336,1.336,0,0,0,0,.167c-.081.04-.159.086-.234.131a2.942,2.942,0,0,0-1.367,2.483c0,.8-.1,1.79-.1,1.79a1.292,1.292,0,0,0,.378.288l-.035.67a2.6,2.6,0,0,1-.065.44v.221h0v.326a.807.807,0,0,0,.031.161,4.034,4.034,0,0,1,.067,1.415l-.115.86a8.8,8.8,0,0,0-1.815-.04l-.061-.029s-.76,0-.561.645l.115.05-.025.054-1.974,4.119a4.659,4.659,0,0,0-1.143-.3,4.591,4.591,0,0,0-5.187,3.917Zm2.458,3.324,1.9-2.283a.5.5,0,0,0,.1.04l-.572,2.9a3.488,3.488,0,0,1-1.425-.657Zm3.094.6-.6-2.967h0l2.164,2.039A3.491,3.491,0,0,1,440.762,332.26Zm-.645-6.756-.284,2.79-.046.094a.5.5,0,0,0-.234.09l-.964-2.775a3.493,3.493,0,0,1,1.519-.2Zm.077,0h.073a3.529,3.529,0,0,1,.8.209l-1.137,2.375Zm2.352,1.3.242.344a3.456,3.456,0,0,1,.261.518l-2.713,1.064a.5.5,0,0,0-.075-.15l1.356-2.6.05.031a3.492,3.492,0,0,1,.87.8Zm.726,2.5-2.921-.342v-.019a.492.492,0,0,0,0-.129l2.706-1.068a3.4,3.4,0,0,1,.209,1.559Zm-3.964-.438a.49.49,0,0,0,.04.267l-2.713,1.237a3.424,3.424,0,0,1,0-2.9l2.673,1.344a.485.485,0,0,0-.006.054Zm-.791-3.142.972,2.8a1.033,1.033,0,0,0-.146.209l-2.665-1.34a3.468,3.468,0,0,1,1.832-1.667Zm5.755-4.847,1.106.492a1.164,1.164,0,0,0,.108.184.418.418,0,0,1,0-.131l1.855.835-.129.695-3.247-1.5.269-.515Zm9.972,12.989,1.878-2.268a.507.507,0,0,0,.111.029l-.58,2.89a3.49,3.49,0,0,1-1.415-.647Zm3.086.6-.6-2.967h0l2.164,2.039a3.491,3.491,0,0,1-1.569.933Zm-.451-3.3a.49.49,0,0,0-.01-.127l2.777-1.087a3.4,3.4,0,0,1,.2,1.559Zm-.2-3.445-.3,2.921h0a.506.506,0,0,0-.184,0l-.159-.209-.881-2.525A3.491,3.491,0,0,1,456.68,327.728Zm-1.043,3.109-2.4-1.206a3.42,3.42,0,0,1,.626-.885Zm.161.19c-.455-.182-1.544-.611-2.713-1.024l.021-.056q.048-.125.1-.246l2.56,1.287Zm.96-3.3h.073a3.508,3.508,0,0,1,1.225.4l-1.388,2.614a.5.5,0,0,0-.209-.088Zm1.365.449a3.493,3.493,0,0,1,.987.853l.242.346a3.449,3.449,0,0,1,.261.517l-2.771,1.085a.5.5,0,0,0-.113-.171Zm-2.26,3.2-2.654,1.214a3.408,3.408,0,0,1-.313-1.216C454.154,331.409,455.353,331.388,455.862,331.378ZM452,329.627l-.263-.083v-.063l.115-.858,1.179-.878.1.125a4.527,4.527,0,0,0-1.125,1.7Zm0-2.032.025-.017L452,327.6Zm-.734-.659a2.587,2.587,0,0,1-.613.776l.2-1.354a1.843,1.843,0,0,0,.194-.48l.044.035.025.021.04.033.027.023.033.027.027.023.029.025.025.023.023.021.052.046h0Zm-3.533-6.771-.54-.077c.255-.2.472-.346.472-.346l.169-.113Zm-.265,1.429-1.34-.666a2.1,2.1,0,0,1,.275-.065l.013-.027c.438.056.851.1,1.168.131Zm-.588-2.454a3.426,3.426,0,0,1,.236-.922l.013-.021h0v-.023h0l.01-.033h0v-.035h0a.673.673,0,0,1,.021-.1h0a1.033,1.033,0,0,1,.021-.119h0v-.065h0a.945.945,0,0,1,.021-.146h0a1.487,1.487,0,0,1,.019-.159h0a.88.88,0,0,1,.017-.169h0v-.179h0v-.536c.021-.3.035-.595.048-.835v-.081a2.146,2.146,0,0,1,.993,1.534,9.549,9.549,0,0,0-.82,1.252,6.741,6.741,0,0,1-.58.636Zm4.067,10.168q-.266-.072-.507-.131l.1-.67h0l.565-.353-.146,1.091Zm.762-5.665-.142,1.043a5.159,5.159,0,0,0-.392-.365h.027l.077-.578a1.178,1.178,0,0,1,.058-.282c.123.04.248.075.378.111Zm2.781,4.6a3.5,3.5,0,0,1,.591-.3l.795,2.3-1.44-1.955Zm4.453,5.241-2.166-2.041a.491.491,0,0,0,.083-.188l2.965.346v.017a3.408,3.408,0,0,1-.885,1.865Zm-3.215,1.058.582-2.9a.5.5,0,0,0,.342-.083l.593,2.921a3.5,3.5,0,0,1-1.337.077Zm-2.487-1.878,2.665-1.219a.5.5,0,0,0,.144.129l-1.878,2.256a3.487,3.487,0,0,1-.933-1.171Zm-9.707-10.383.1-.19,5.613,2.786.075,1.83a4.313,4.313,0,0,0,.1.768,2.8,2.8,0,0,1-.129,1.329,1.008,1.008,0,0,0-.438-.169h-.063a1.014,1.014,0,0,0-.28,0Zm-1.162,8.993-2.166-2.041.027-.042a.489.489,0,0,0,.079-.144l2.95.348h0A3.407,3.407,0,0,1,442.375,331.276Zm-3.215,1.043.582-2.9a.5.5,0,0,0,.342-.083l.593,2.921a3.505,3.505,0,0,1-1.337.077Zm-2.489-1.878,2.713-1.239a.5.5,0,0,0,.119.127l-1.893,2.276a3.487,3.487,0,0,1-.939-1.164Z" transform="translate(-364.553 -252.915)"/><path class="g" d="M442.663,394.13l2.253-2.736-.119.048-3.407,1.58.025-3.512,3.528,1.788v-.04l-.209-.209-1.171-3.42,1.759-.077V387.5h.075v.046l1.183-.052.265.382.035-.067,1.237,1.909.835,1.208-.242.82-3.439-.39v-.075l3.368.392.209-.722-.611-.883-3.144,1.252.163.154h.015l2.516,2.4-1.888,1.018-.67-3.359-.227-.115h0l-.737,3.674Zm.115-.019,1.427.862.686-3.428Zm2.546-2.5.626,3.157,1.732-.91Zm-3.835-1.982-.023,3.268,3.3-1.529.086-.033Zm5.321-1.669-.263-.382-1.152.05-.365,3.593.015.015.115-.14Zm1.252,1.807-1.2-1.736-1.636,3.117-.061.073,3.046-1.208Zm-4.382-2.064L444.81,391l.154.146.359-3.524Z" transform="translate(-369.482 -315.495)"/><path class="g" d="M519.965,404.449l2.254-2.735-.119.048-3.409,1.58.025-3.512,3.528,1.788v-.04l-.209-.209-1.171-3.42,1.759-.077v-.056h.075v.046l1.183-.052.265.382.036-.067,1.235,1.907.835,1.208-.242.82-3.432-.4v-.075l3.368.392.209-.722-.611-.883-3.144,1.252.163.154h.015l2.516,2.4-1.918,1.006-.67-3.359-.227-.115h0l-.737,3.674Zm.115-.019,1.427.862.686-3.428Zm2.546-2.5.626,3.157,1.732-.91Zm-3.835-1.982-.023,3.268,3.3-1.529.085-.033Zm5.321-1.669-.263-.382-1.152.05-.365,3.593.015.015.115-.14Zm1.252,1.807-1.2-1.736-1.634,3.1-.06.073,3.046-1.208Zm-4.382-2.064,1.131,3.305.154.146.359-3.524Z" transform="translate(-430.653 -323.662)"/><rect class="b" width="2.291" height="0.726" transform="matrix(-0.799, 0.601, -0.601, -0.799, 89.017, 74.125)"/><rect class="c" width="2.291" height="0.726" transform="matrix(-0.799, 0.601, -0.601, -0.799, 89.017, 74.125)"/><path class="ap" d="M498.979,379.676a9.555,9.555,0,0,1-1.191-.989,4.974,4.974,0,0,0-.626-.607l-1.091-.87-2.435-.52-.169.4s-.271.58,1.55,1.365a7.8,7.8,0,0,1,2.656,1.744S498.83,380.778,498.979,379.676Z" transform="translate(-410.68 -306.949)"/><path class="c" d="M513.27,391.048c.061.06.09.094.09.094s1.156.58,1.3-.517l-.142-.1a1.056,1.056,0,0,1-.96.38l-.127-.017Z" transform="translate(-426.364 -317.893)"/><path class="ab" d="M493.49,377.345c.075.238.388.653,1.544,1.15a8.289,8.289,0,0,1,2.566,1.65c.061.061.09.094.09.094s1.156.58,1.3-.517l-.142-.1a8.06,8.06,0,0,1-1.043-.887,4.97,4.97,0,0,0-.626-.607l-1.1-.874-.434-.092-2-.417-.169.4A.317.317,0,0,0,493.49,377.345Z" transform="translate(-410.692 -306.989)"/><path class="aq" d="M510.236,389.83l.914.8-3.268,2.064s-.4-.321-.127-.595a2.484,2.484,0,0,0,1-1.444l.267-.271.129.017a1.056,1.056,0,0,0,1.083-.568Z" transform="translate(-421.925 -317.347)"/><path class="c" d="M493.5,377.337a7.368,7.368,0,0,1,2.128-.044l.035-.146-2-.417-.169.4A.317.317,0,0,0,493.5,377.337Z" transform="translate(-410.704 -306.981)"/><path class="aq" d="M495.115,362.262a5.772,5.772,0,0,0-2.3.117l.835-4.549,2.46.332Z" transform="translate(-410.181 -292.024)"/><path class="ab" d="M495.125,362.192a5.772,5.772,0,0,0-2.3.117l.835-4.549,2.46.332Z" transform="translate(-410.189 -291.969)"/><path class="g" d="M437.038,388.07a4.492,4.492,0,1,0,6.775-3.249,4.411,4.411,0,0,0-.557-.286,4.5,4.5,0,0,0-6.218,3.533Zm1.108.134a3.395,3.395,0,0,1,4.645-2.69,3.349,3.349,0,0,1,.524.269,3.393,3.393,0,1,1-5.171,2.418Z" transform="translate(-366.006 -312.873)"/><path class="g" d="M481.355,363.213s-4.432-.751-4.59-.188,4.407.933,4.407.933A.626.626,0,0,0,481.355,363.213Z" transform="translate(-397.472 -295.97)"/><path class="ab" d="M481.355,363.213s-4.432-.751-4.59-.188,4.407.933,4.407.933A.626.626,0,0,0,481.355,363.213Z" transform="translate(-397.472 -295.97)"/><circle class="ar" transform="translate(85.202 79.909)"/><rect class="b" width="6.907" height="0.795" transform="matrix(0.133, -0.991, 0.991, 0.133, 86.258, 76.875)"/><path class="c" d="M514.3,378.07l-.071.528c.257.069.524.127.778.169l.079-.59Z" transform="translate(-427.123 -308.041)"/><path class="g" d="M508.968,375.339a2.979,2.979,0,0,0,.336,0c.438-.025,1.538-.05,1.788.277.315.417.108,1.033-.874.993a5.48,5.48,0,0,1-2.9-.914A3.054,3.054,0,0,1,508.968,375.339Z" transform="translate(-421.655 -305.87)"/><path class="b" d="M386.182,330.767l-7.923-3.687-.359.6,8.092,4.048Z" transform="translate(-299.046 -258.831)"/><path class="b" d="M382.075,337.289,376.9,330.61l-.4.44,4.9,6.7Z" transform="translate(-297.938 -261.624)"/><path class="c" d="M464.77,386.879a3.359,3.359,0,0,1,.524.269l.5-.962a4.407,4.407,0,0,0-.557-.286Z" transform="translate(-387.983 -314.237)"/><path class="b" d="M361.22,329.825l.392.3,4.069-7.864.182-.353-.645-.486-.246.52Z" transform="translate(-285.846 -254.352)"/><path class="c" d="M379.2,321.94l.709.319.182-.353-.645-.486Z" transform="translate(-300.074 -254.352)"/><path class="g" d="M479.925,364.812l-3.964-1.982s-.739,0-.549.626l4.013,1.8S480.06,365.417,479.925,364.812Z" transform="translate(-396.38 -295.981)"/><path class="g" d="M514.346,398.253a4.536,4.536,0,1,0,4.927-3.91A4.549,4.549,0,0,0,514.346,398.253Zm1.081.747a3.393,3.393,0,1,1,3.215,3.217A3.42,3.42,0,0,1,515.427,399Z" transform="translate(-427.183 -320.902)"/><path class="c" d="M514.346,409.5a4.548,4.548,0,0,0-.04.7c.367.021.747.038,1.121.046a3.421,3.421,0,0,1,.209-1.354c-.348-.123-.705-.246-1.043-.359A4.491,4.491,0,0,0,514.346,409.5Z" transform="translate(-427.183 -332.145)"/><path class="c" d="M510.259,407l-.109.805.787.106.092-.682Z" transform="translate(-423.895 -330.935)"/><path class="b" d="M506.268,408.032s-6.137-2.521-6.738-1.955-1.252,1.342.3,1.861,6.52.353,6.52.353Z" transform="translate(-414.967 -330.138)"/><path class="c" d="M521.14,398.48l.707.849a3.4,3.4,0,0,1,.551-.438l-.647-.891a4.533,4.533,0,0,0-.611.48Z" transform="translate(-432.591 -323.812)"/><path class="b" d="M422.114,350.567l-4.088-5.607-.307,1.131,4.09,4.9Z" transform="translate(-330.557 -272.98)"/><circle class="c" cx="0.488" cy="0.488" r="0.488" transform="matrix(0.133, -0.991, 0.991, 0.133, 91.024, 78.347)"/><circle class="g" cx="0.488" cy="0.488" r="0.488" transform="matrix(0.133, -0.991, 0.991, 0.133, 91.084, 78.355)"/><circle class="c" cx="0.488" cy="0.488" r="0.488" transform="matrix(0.133, -0.991, 0.991, 0.133, 74.993, 76.145)"/><circle class="g" cx="0.488" cy="0.488" r="0.488" transform="matrix(0.133, -0.991, 0.991, 0.133, 74.954, 76.203)"/><circle class="c" cx="0.977" cy="0.977" r="0.977" transform="translate(82.656 77.115) rotate(-82.519)"/><circle class="g" cx="0.979" cy="0.979" r="0.979" transform="matrix(0.133, -0.991, 0.991, 0.133, 83.027, 77.273)"/><rect class="b" width="0.52" height="1.815" rx="0.26" transform="translate(83.321 77.876) rotate(-135.55)"/><path class="ap" d="M486.827,340.815l-.063,1.152a2.579,2.579,0,0,1-.073.426,1.648,1.648,0,0,0,.031.709,4,4,0,0,1,.063,1.392l-.175,1.3.891-.033a11.28,11.28,0,0,1,.4-2.1,18.661,18.661,0,0,0,.288-3Z" transform="translate(-405.266 -278.429)"/><path class="ab" d="M486.8,341.377l-.031.58a2.574,2.574,0,0,1-.073.428,1.648,1.648,0,0,0,.031.709,4,4,0,0,1,.063,1.392l-.175,1.3.891-.033a11.279,11.279,0,0,1,.4-2.1,12.245,12.245,0,0,0,.265-2.439c.017-.336.025-.568.025-.568l-1.371.163Z" transform="translate(-405.266 -278.421)"/><path class="ap" d="M501.982,378.082l.075,1.9a4.287,4.287,0,0,0,.094.755,3.3,3.3,0,0,1-.246,1.659c-.065.171-.115.28-.115.28l.912.661.334-.186.023-.152.488-3.361a2.4,2.4,0,0,0,.209-1.628,1.294,1.294,0,0,1-.048-.323,8.149,8.149,0,0,1,.031-.989s-.467-1.1-1.279-.52a1.327,1.327,0,0,0-.507.835,2.714,2.714,0,0,0,.029,1.064Z" transform="translate(-417.279 -306.413)"/><path class="c" d="M502.61,377.016a4.724,4.724,0,0,0,1.753.666,8.149,8.149,0,0,1,.031-.989s-.467-1.1-1.279-.52A1.327,1.327,0,0,0,502.61,377.016Z" transform="translate(-417.928 -306.405)"/><path class="aq" d="M496.678,356.612a6.99,6.99,0,0,1,1.043.91,4.64,4.64,0,0,0,2.049.816l.077-.568c.054-.686.8-1.356,1.955-3.359a3.072,3.072,0,0,0,.553-2.468.918.918,0,0,0-.177-.332l-4.853.271-.248.484-.507,1.043a9.524,9.524,0,0,1,1.525.4c.211.144-.077,1.146-.077,1.146C498.1,356.031,496.678,356.612,496.678,356.612Z" transform="translate(-413.148 -287.102)"/><path class="c" d="M487.531,340.815l-.031.57a1.169,1.169,0,0,0,1.185-.261,1.747,1.747,0,0,1,.192.094c.017-.336.025-.568.025-.568Z" transform="translate(-405.971 -278.429)"/><path class="c" d="M498.921,352.365a1.723,1.723,0,0,1-.021.29s.774.835,2.4-.063a3.7,3.7,0,0,1,2.907-.417,2.244,2.244,0,0,0-.017-.234.918.918,0,0,0-.177-.332l-4.853.271Z" transform="translate(-414.992 -287.102)"/><path class="h" d="M485.762,323.181c0,.782-.1,1.761-.1,1.761a1.092,1.092,0,0,0,1.577.019,2.105,2.105,0,0,1,1.179,1.755,4.235,4.235,0,0,1,.021,1.064,1.252,1.252,0,0,0,.626.313,2.524,2.524,0,0,0,1.774-.376,3.684,3.684,0,0,1,2.907-.417,4.065,4.065,0,0,0-.605-2.087,6.031,6.031,0,0,1-1.446-3.007,2.016,2.016,0,0,0-2.13-1.636s-.029-.351-1.475-.209a2.3,2.3,0,0,0-.987.363A2.909,2.909,0,0,0,485.762,323.181Z" transform="translate(-404.515 -262.347)"/><path class="ap" d="M494.3,322.763v.171c-.017.691.071.626.883.889a.86.86,0,0,0,1.008-.555,2.162,2.162,0,0,0,.156-.367l-1.776-.547S494.355,322.26,494.3,322.763Z" transform="translate(-411.353 -263.945)"/><path class="ab" d="M498.87,340.346a4.229,4.229,0,0,1,.021,1.064,1.252,1.252,0,0,0,.626.313.358.358,0,0,0,.038-.071,3.293,3.293,0,0,1,.77-.86,1.74,1.74,0,0,0,.582-.885l.872-1.751.232-.142a1.431,1.431,0,0,0-1.613-.332,1.988,1.988,0,0,0-.77,1.707l-.209.4A2.455,2.455,0,0,0,498.87,340.346Z" transform="translate(-414.968 -275.966)"/><path class="ap" d="M490.234,337.772l-1.1,1.895a1.74,1.74,0,0,1-.582.885,3.292,3.292,0,0,0-.77.86c-.121.33-1.3,1.1-1.3,1.1s-1.106.776-1.227,1.106c0,0-.943.142-.9.689a.913.913,0,0,1,.177-1.325,15.967,15.967,0,0,0,1.855-1.755,6.073,6.073,0,0,1,1.267-1.669l.209-.4s-.065-1.252.77-1.707A1.448,1.448,0,0,1,490.234,337.772Z" transform="translate(-403.304 -275.783)"/><path class="c" d="M501.78,406.963l.912.661.334-.186.023-.152a2.312,2.312,0,0,1-.929-.417c-.083-.065-.163-.125-.225-.179C501.826,406.849,501.78,406.963,501.78,406.963Z" transform="translate(-417.271 -330.689)"/><path class="c" d="M503.54,329.554l-.81,2.009s1.592.484,1.968.265a2.428,2.428,0,0,1,1.031-.209,8.232,8.232,0,0,0-.764-2.337C504.618,329.005,503.54,329.554,503.54,329.554Z" transform="translate(-418.023 -269.372)"/><path class="h" d="M503.59,329.184l-.81,2.009s1.592.484,1.968.265a2.429,2.429,0,0,1,1.031-.209,8.231,8.231,0,0,0-.764-2.337C504.668,328.635,503.59,329.184,503.59,329.184Z" transform="translate(-418.062 -269.079)"/><path class="c" d="M494.34,322.583a1.338,1.338,0,0,0,1.878.5,2.158,2.158,0,0,0,.156-.367l-1.776-.547S494.39,322.08,494.34,322.583Z" transform="translate(-411.384 -263.802)"/><path class="ap" d="M493.632,315.573a1.338,1.338,0,0,0,2.65.357v-.067a1.336,1.336,0,0,0-2.656-.29Z" transform="translate(-410.817 -257.642)"/><path class="c" d="M493.612,315.525a1.333,1.333,0,0,0,0,.367.515.515,0,0,0,.309.013c.148-.038.284-.117.428-.167a2.12,2.12,0,0,1,1.275.077.789.789,0,0,0,.626,0l.019-.013a1.336,1.336,0,0,0-2.656-.29Z" transform="translate(-410.797 -257.594)"/><path class="as" d="M495.275,310.819c-.115.242-.5.2-.726.357-.117.083-.184.219-.309.29a.8.8,0,0,1-.595-.015,2.1,2.1,0,0,0-1.214-.079,3.914,3.914,0,0,1-.417.146.434.434,0,0,1-.417-.088c-.079-.083-.094-.209-.163-.294a1.947,1.947,0,0,0-.2-.179.834.834,0,0,1-.209-.524,1.8,1.8,0,0,1,.19-1.127,1.029,1.029,0,0,1,1.018-.5c.123.023.24.073.363.1a5.9,5.9,0,0,0,.981.035.557.557,0,0,1,.273.075.512.512,0,0,1,.146.171,1.608,1.608,0,0,1,.209.7c.015.186,0,.351.209.417S495.517,310.3,495.275,310.819Z" transform="translate(-408.744 -253.224)"/><path class="ab" d="M510.656,343.57a2.2,2.2,0,0,0-1.415.774,1.587,1.587,0,0,1-1.231.655" transform="translate(-422.201 -280.74)"/><rect class="b" width="2.291" height="0.726" transform="matrix(-0.991, -0.133, 0.133, -0.991, 84.904, 78.345)"/><rect class="c" width="2.291" height="0.726" transform="matrix(-0.991, -0.133, 0.133, -0.991, 84.904, 78.345)"/><path class="aq" d="M492.848,406.618a1.422,1.422,0,0,1-.361-.328,3.338,3.338,0,0,1-1.064.578,2.3,2.3,0,0,0-.467.159,1.392,1.392,0,0,1-.707.156s-.59.384.417.6a28.182,28.182,0,0,0,3.432.269l-.025-.966h0A2.32,2.32,0,0,1,492.848,406.618Z" transform="translate(-408.009 -330.373)"/><path class="at" d="M202.9,215.568a1.393,1.393,0,0,1,.031-.3q.031-.142.054-.332.058-.325.134-.626.038-.15.077-.3a8.046,8.046,0,0,1,1.567-3.048l.125-.146q.125-.142.248-.267t.242-.234c.079-.073.156-.14.232-.209a4.424,4.424,0,0,1,.417-.313c.129-.086.175-.119.248-.163a1.381,1.381,0,0,1,.584-.194l1.287-.129h0l1.74-.173,6.289-2.483.248.09a14.958,14.958,0,0,0,.465-1.571,1.4,1.4,0,0,1-.5-.369,1.152,1.152,0,0,1-.342-.447c-.159-.371.144-1.164.083-1.619a7.714,7.714,0,0,0-.774-2.087,9.851,9.851,0,0,1-1.043-4.507,5.111,5.111,0,0,1,2.066-4c.668-.449,1.461-.691,2.147-1.1.54-.319,1.016-.737,1.532-1.1a8.676,8.676,0,0,1,8.666-.626,43.182,43.182,0,0,1,3.654,2.416,6.111,6.111,0,0,0,4.127,1.156.95.95,0,0,1,.044.182l.121-.015c.248.689-.361,1.369-.922,1.838a6.242,6.242,0,0,1-3.662,1.813,4.014,4.014,0,0,0-1.592.121,1.42,1.42,0,0,0-.3.188,7.115,7.115,0,0,1-2.176,7.007l3.209-1.175s.134.071.342.209l4.455-3.021s8.937-3.309,11.42,1.822-10.758,2.483-10.758,2.483l-2.834,1.584a2.667,2.667,0,0,1-.311,1.726l-7.72,4.853a40.962,40.962,0,0,0,4.59,1.271c.661,0,2.483.661,3.641,3.309s5.3,15.557,8.937,17.709,13.241,16.551,13.241,16.551l-.044.113q.257.069.5.15a10.194,10.194,0,0,1,4.991,3.825,1.63,1.63,0,0,1-1.118,2.558,6.918,6.918,0,0,1-6.854-2.629c-.065-.088-.125-.173-.182-.255a1.312,1.312,0,0,1-.935.044l-4.649-3.8s3.626,3.629,1.5,6.934l.161.23a53.085,53.085,0,0,1,7.766,17.166s1.986,1.49,2.151,7.447,2.151,15.557,2.151,15.557,1.331,11.422.5,14.9c0,0-.1.138-.271.351.063.075.129.154.209.24.722.793,2.026,1.888,3.547,1.563,2.318-.5,2.318,3.641-.993,3.964a85.912,85.912,0,0,0-9.035,1.845,1.915,1.915,0,0,1-2.36-2.064,17.786,17.786,0,0,1,.993-4.555c.033-.079.067-.156.1-.232-.1-.092-.194-.188-.292-.29,0,0,0-7.282-1.158-9.269,0,0-3.144-15.061-2.98-18.869.136-2.971-8.161-14.573-11.758-19.472l.029-.186c-.922-1.252-1.506-2.02-1.506-2.02l-2.813,18.04a26.137,26.137,0,0,1-2.98,6.124s-7.117,13.738-7.944,18.04a13.8,13.8,0,0,1-2.5,5.934l.209.209a3.6,3.6,0,0,0,3.13,1.137c2.318-.5,2.318,3.641-.993,3.964a85.9,85.9,0,0,0-9.035,1.845,1.915,1.915,0,0,1-2.36-2.064,15.1,15.1,0,0,1,1.271-5.131,3.457,3.457,0,0,1,.188-.3,1.751,1.751,0,0,1-.657-.472s4.3-10.433,4.3-13.241c0,0,1.822-10.758,7.944-14.731,0,0-.58-13.454-2.322-20.943q-.065-.277-.131-.542a48.509,48.509,0,0,1-4.828-1.022l-.165-4.966-.835,3.964-9.277-5.776s.081-1.043.238-2.644c.079-.8.175-1.74.292-2.758.092-.814.2-1.669.313-2.562q.044-.332.09-.666c.121-.891.255-1.794.4-2.677q.081-.5.167-.983.113-.648.236-1.269.061-.309.125-.609t.129-.588q.065-.288.131-.565l.067-.273q.069-.269.138-.524a9.624,9.624,0,0,0,.336-2.17q.017-.438,0-.874a7.643,7.643,0,0,0-.083-.87q-.029-.209-.071-.432a9.971,9.971,0,0,0-.469-1.69q-.154-.417-.346-.814c-.3-.626-.626-1.3-.951-2.018q-.248-.536-.5-1.1t-.509-1.135c-1.611-3.647-3.2-7.72-3.626-10.387-.044-.282-.077-.547-.094-.795A5.391,5.391,0,0,1,202.9,215.568Z" transform="translate(-180.746 -157.986)"/><path class="au" d="M335.41,251.747l5.458-3.693s8.67-3.211,11.078,1.765-10.433,2.408-10.433,2.408l-5.458,3.051Z" transform="translate(-285.615 -204.347)"/><path class="g" d="M249.242,777.284a84.656,84.656,0,0,1,8.764-1.788c3.211-.321,3.211-4.334.964-3.852a3.472,3.472,0,0,1-3.028-1.1,7.093,7.093,0,0,1-.636-.68,1.855,1.855,0,0,0-1.043-.626c-1.2-.263-3.71-.659-5.252.171a2.268,2.268,0,0,0-.835.91,14.821,14.821,0,0,0-1.233,4.977,1.857,1.857,0,0,0,2.3,1.993Z" transform="translate(-215.599 -617.326)"/><path class="g" d="M443.925,784.982a84.671,84.671,0,0,1,8.764-1.788c3.211-.321,3.211-4.334.964-3.852-1.461.317-2.736-.747-3.434-1.515-.086-.094-.163-.184-.23-.267a1.855,1.855,0,0,0-1.043-.626c-1.2-.263-3.71-.659-5.252.171a2.876,2.876,0,0,0-1.1,1.461,17.322,17.322,0,0,0-.964,4.417,1.857,1.857,0,0,0,2.3,2Z" transform="translate(-369.664 -623.419)"/><path class="c" d="M446.31,778.573c3.833,3.95,7.119-.073,7.618-.737-.086-.094-.163-.184-.229-.267a1.855,1.855,0,0,0-1.043-.626c-1.2-.263-3.71-.659-5.252.171A2.79,2.79,0,0,0,446.31,778.573Z" transform="translate(-373.375 -623.427)"/><path class="c" d="M253,770.28c1.669,1.135,7.251.856,7.251.856a5.5,5.5,0,0,0,.5-.626,7.1,7.1,0,0,1-.636-.68,1.854,1.854,0,0,0-1.043-.626c-1.2-.263-3.71-.659-5.252.171A2.268,2.268,0,0,0,253,770.28Z" transform="translate(-220.401 -617.302)"/><path class="aa" d="M251.55,567.446c1.125,1.444,7.545,1.125,7.545,1.125a12.3,12.3,0,0,0,2.729-6.1c.8-4.175,7.706-17.5,7.706-17.5a25.209,25.209,0,0,0,2.89-5.94l2.729-17.49s13.162,17.333,13.01,21.026,2.89,18.3,2.89,18.3c1.125,1.926,1.125,8.989,1.125,8.989,4.173,4.334,7.706-.8,7.706-.8.8-3.372-.482-14.447-.482-14.447s-1.926-9.31-2.087-15.09-2.087-7.224-2.087-7.224a51.492,51.492,0,0,0-7.539-16.653c-.987-1.388-1.613-2.13-1.613-2.13l-26.015,3.051a16.393,16.393,0,0,1,1.118,3.445c1.69,7.263,2.251,20.315,2.251,20.315-5.94,3.852-7.706,14.287-7.706,14.287C255.723,557.336,251.55,567.446,251.55,567.446Z" transform="translate(-219.253 -415.221)"/><g class="ac" transform="translate(32.134 98.289)"><path d="M371.51,554.119l.334-2.139s13.164,17.337,13,21.031,2.89,18.3,2.89,18.3c1.125,1.926,1.125,8.989,1.125,8.989a5.539,5.539,0,0,0,2.5,1.611c-1.264.332-2.8.09-4.44-1.611,0,0,0-7.063-1.125-8.989,0,0-3.051-14.606-2.89-18.3C383.047,570.121,375.009,558.87,371.51,554.119Z" transform="translate(-346.317 -543.953)"/><path d="M254.945,554.607s1.765-10.433,7.706-14.287c0,0-.561-13.049-2.251-20.315a16.435,16.435,0,0,0-1.118-3.445l26.007-3.051s.06.071.171.209l-24.252,2.842a16.393,16.393,0,0,1,1.118,3.445c1.69,7.263,2.251,20.315,2.251,20.315-5.938,3.852-7.708,14.287-7.708,14.287,0,2.729-4.173,12.843-4.173,12.843.661.851,3.165,1.089,5.11,1.141-1.542.04-6.105.054-7.036-1.141C250.772,567.446,254.945,557.336,254.945,554.607Z" transform="translate(-250.77 -513.51)"/></g><path class="au" d="M440,492.389a5.816,5.816,0,0,0,.762,1.329,6.715,6.715,0,0,0,6.65,2.55,1.58,1.58,0,0,0,1.085-2.481,9.842,9.842,0,0,0-4.841-3.71,8.723,8.723,0,0,0-2.049-.417Z" transform="translate(-368.382 -396.347)"/><path class="av" d="M277.56,269.709,290.434,265s3.7,1.928,2.241,4.657l-12.519,7.862Z" transform="translate(-239.836 -218.564)"/><path class="c" d="M277.56,269.709,290.434,265s3.7,1.928,2.241,4.657l-12.519,7.862Z" transform="translate(-239.836 -218.564)"/><path class="au" d="M261.126,249.188s.161,7.545-3.211,10.114,9.792,4.012,9.792,4.012-2.087-7.706,0-11.718S261.126,249.188,261.126,249.188Z" transform="translate(-223.853 -205.801)"/><path class="c" d="M292.32,516.561a16.391,16.391,0,0,1,1.118,3.445c15.526,2.37,26.332-4.088,26.332-4.088.058-.094.115-.186.167-.277-.977-1.388-1.6-2.13-1.6-2.13Z" transform="translate(-251.516 -415.221)"/><path class="c" d="M440,492.381a5.816,5.816,0,0,0,.762,1.329c1.486-.246,2.675-3.088,2.894-3.643a8.719,8.719,0,0,0-2.049-.417Z" transform="translate(-368.382 -396.339)"/><path class="av" d="M220.394,282.7l5.78,2.087L228.582,288s4.976,1.6,5.619,1.6,2.408.643,3.533,3.211,5.137,15.09,8.67,17.177,12.843,16.054,12.843,16.054-1.6,4.334-3.533,3.693l-4.488-3.693s3.533,3.533,1.444,6.742c0,0-13.164,7.866-31.3,3.051l-.161-4.816-.8,3.852-8.989-5.619s.789-10.36,2.249-15.635a9.527,9.527,0,0,0-.626-6.652c-2.331-4.858-5.928-12.97-5.49-15.929a7.4,7.4,0,0,1,3.238-5.458,1.341,1.341,0,0,1,.565-.188l2.938-.284Z" transform="translate(-184.406 -232.571)"/><path class="ab" d="M316.56,360s3.211,14.929,6.742,17.337,13,10.114,13.325,11.4" transform="translate(-270.698 -293.741)"/><path class="av" d="M323.48,357.71s3.211,14.929,6.742,17.337,13,10.114,13.325,11.4" transform="translate(-276.175 -291.929)"/><path class="c" d="M254.687,296.741s-11.078-3.693-14.287-2.729" transform="translate(-210.43 -241.395)"/><g class="ac" transform="translate(23.109 50.129)"><path d="M213.041,316.7c-2.331-4.858-5.928-12.97-5.49-15.929a7.4,7.4,0,0,1,3.238-5.458,1.342,1.342,0,0,1,.565-.188l1.252-.125a1.319,1.319,0,0,0-.371.152A7.44,7.44,0,0,0,209,300.611c-.438,2.957,3.159,11.071,5.49,15.929a9.527,9.527,0,0,1,.626,6.644c-1.461,5.275-2.256,15.637-2.256,15.637l7.741,4.839-.2.941-8.989-5.619s.793-10.354,2.253-15.628a9.527,9.527,0,0,0-.626-6.652Z" transform="translate(-207.515 -292.434)"/><path d="M144.88,242.487l-1.39.14,6.045-2.387.543.2Z" transform="translate(-136.655 -240.24)"/></g><path class="ab" d="M269.906,423.817s-4.976-2.729-6.581-2.087-7.545-.161-7.545-.161" transform="translate(-222.601 -342.464)"/><path class="ab" d="M275.961,253.623c.184-1.609-.561-1.365-.561-1.365s8.67-1.6,6.581,2.408a9.279,9.279,0,0,0-.88,3.53h-.081C278.6,258.2,277.194,255.5,275.961,253.623Z" transform="translate(-238.127 -208.23)"/><circle class="au" cx="6.902" cy="6.902" r="6.902" transform="translate(35.99 35.521)"/><path class="c" d="M262.376,210.652a9.52,9.52,0,0,1-1.008-4.382,4.917,4.917,0,0,1,2-3.871c.647-.436,1.411-.67,2.087-1.066.524-.311.987-.714,1.486-1.064a8.415,8.415,0,0,1,8.4-.611A40.68,40.68,0,0,1,278.9,202a5.936,5.936,0,0,0,4,1.12c.24.668-.35,1.327-.9,1.784a6.051,6.051,0,0,1-3.547,1.759,3.852,3.852,0,0,0-1.544.119,2.216,2.216,0,0,0-.789.732,14.349,14.349,0,0,0-1.638,2.777,2.336,2.336,0,0,1-.734,1.079c-.626.4-1.425.067-2.16.038a4.48,4.48,0,0,0-3.017,1.446,9.251,9.251,0,0,1-2.713,2.055c-.8.3-2.391.292-2.8-.661-.152-.359.14-1.129.079-1.569A8.339,8.339,0,0,0,262.376,210.652Z" transform="translate(-227.016 -166.187)"/><path class="aw" d="M261.606,209.834a9.52,9.52,0,0,1-1.008-4.382,4.953,4.953,0,0,1,2-3.883c.647-.436,1.411-.67,2.087-1.066.524-.311.987-.714,1.486-1.064a8.415,8.415,0,0,1,8.4-.611,40.665,40.665,0,0,1,3.547,2.343,5.936,5.936,0,0,0,4,1.12c.24.668-.351,1.327-.9,1.784a6.051,6.051,0,0,1-3.547,1.759,3.851,3.851,0,0,0-1.544.119,2.215,2.215,0,0,0-.789.732,14.345,14.345,0,0,0-1.638,2.777,2.335,2.335,0,0,1-.734,1.079c-.626.4-1.425.067-2.16.038a4.48,4.48,0,0,0-3.017,1.446,9.251,9.251,0,0,1-2.713,2.055c-.8.3-2.391.292-2.8-.661-.152-.359.14-1.129.079-1.569A8.45,8.45,0,0,0,261.606,209.834Z" transform="translate(-226.406 -165.531)"/><path class="m" d="M868.5,774.077s4.709-.941,5.965-2.2S881.372,768.427,882,770s8.476,6.907,3.13,7.85-12.557,1.252-14.128.626S868.5,774.077,868.5,774.077Z" transform="translate(-707.473 -617.76)"/><path class="n" d="M885.138,794.66c-5.338.941-12.557,1.252-14.128.626-1.2-.478-2.026-2.775-2.354-3.846l-.157.033s.941,3.768,2.5,4.394,8.791.313,14.128-.626c1.54-.271,1.98-.91,1.815-1.719C886.822,794.061,886.286,794.457,885.138,794.66Z" transform="translate(-707.472 -635.159)"/></g></svg>