<svg xmlns="http://www.w3.org/2000/svg" xmlns:xlink="http://www.w3.org/1999/xlink" viewBox="-1311.483 -670.034 210 161.168"><defs><style>.a,.ag,.c,.h{fill:#02214a;}.a,.d,.m,.y{opacity:0.1;}.b,.f{fill:none;stroke-miterlimit:10;}.b{stroke:#535461;stroke-width:2px;}.ah,.d,.g{fill:#fff;}.e,.h{opacity:0.2;}.f{stroke:#02214a;}.g{opacity:0.5;}.i{fill:url(#a);}.j{fill:#fdb797;}.k{fill:#565171;}.l{fill:#8f5a6a;}.n{fill:#f60;}.o{fill:#b45181;}.p{opacity:0.7;}.q{fill:url(#b);}.r{fill:#e0e0e0;}.s{fill:#535461;}.t{fill:#3e3f49;}.u{fill:#eee;}.v{fill:#ff5252;}.w{fill:#ff0;}.x{fill:#69f0ae;}.z{fill:#f4f4f4;}.aa{fill:url(#e);}.ab{fill:#72351c;}.ac{fill:#333;}.ad{fill:#4d8af0;}.ae{fill:#f55f44;}.af{fill:#f0e4e4;}.ag{opacity:0.757;}</style><linearGradient id="a" x1="0.927" y1="1" x2="0.927" gradientUnits="objectBoundingBox"><stop offset="0" stop-color="gray" stop-opacity="0.251"/><stop offset="0.54" stop-color="gray" stop-opacity="0.122"/><stop offset="1" stop-color="gray" stop-opacity="0.102"/></linearGradient><linearGradient id="b" x1="0.5" y1="1" x2="0.5" y2="0" xlink:href="#a"/><linearGradient id="e" x1="0.503" y1="1" x2="0.503" y2="-0.002" xlink:href="#a"/></defs><g transform="translate(-1311.477 -670.042)"><path class="a" d="M87.086,129.9c7.13,9.066,4.36,22.308-.17,32.916-1.518,3.552-3.232,7.308-2.6,11.116.782,4.656,4.938,8.062,9.3,9.866a27.686,27.686,0,0,0,24.784-2.042c6.316-3.93,10.84-10.32,17.264-14.07,10.752-6.276,24.436-3.906,36.11.418,8.26,3.058,17.29,7.036,25.5,3.84,5.774-2.25,9.766-7.724,11.942-13.528,1.05-2.8,1.812-5.834,3.818-8.056a14.334,14.334,0,0,1,4.342-3.048c14.554-7.216,32.934-3.352,47.07-11.354,9.546-5.4,15.658-15.6,18.364-26.232s2.4-21.78,1.7-32.728c-.488-7.782-1.364-16.088-6.336-22.094-5.26-6.352-14.286-8.716-22.444-7.508s-15.554,5.512-22.06,10.58c-8.13,6.336-15.672,14.224-25.654,16.8-6.8,1.748-13.95.8-20.962.46-11.722-.554-23.448.678-35.106,2.024-11.16,1.29-22.4,2.71-33.032,6.34-7.522,2.56-13.55,7.224-20.654,10.474-4.63,2.124-9.68,2.71-14.066,5.416-5.4,3.332-10.352,9.128-8.968,15.91C76.546,121.851,83.3,125.085,87.086,129.9Z" transform="translate(-75 -47.08)"/><path class="b" d="M185.911,432.85s-.66-19.552-11.238-30.6a29.637,29.637,0,0,1-8.128-16.9,49.854,49.854,0,0,1-.248-9.114" transform="translate(-147.959 -310.401)"/><path class="c" d="M132.729,319.345c.724,2.184,6.776,7.2,6.776,7.2s1.854-7.642,1.13-9.824a4.165,4.165,0,1,0-7.906,2.622Z" transform="translate(-121.017 -260.502)"/><path class="c" d="M115.279,383.33c1.8,1.44,9.6,2.364,9.6,2.364s-2.6-7.422-4.4-8.86a4.164,4.164,0,0,0-5.2,6.5Z" transform="translate(-106.083 -310.229)"/><path class="c" d="M142.425,482.291c2.276.336,9.482-2.8,9.482-2.8s-5.988-5.1-8.264-5.432a4.165,4.165,0,1,0-1.218,8.24Z" transform="translate(-126.099 -388.619)"/><path class="c" d="M189.673,554.647c2.186.716,9.82-1.164,9.82-1.164s-5.042-6.034-7.228-6.75a4.165,4.165,0,0,0-2.6,7.914Z" transform="translate(-164.443 -446.628)"/><path class="c" d="M179.123,388.372c-1.062,2.04-7.834,6.036-7.834,6.036s-.616-7.838.446-9.88a4.164,4.164,0,1,1,7.388,3.844Z" transform="translate(-151.893 -315.237)"/><path class="c" d="M225.06,468.859c-1.624,1.63-9.28,3.414-9.28,3.414s1.758-7.664,3.38-9.294a4.164,4.164,0,1,1,5.9,5.878Z" transform="translate(-187.628 -378.812)"/><path class="c" d="M266.2,559.573c-1.324,1.88-8.57,4.934-8.57,4.934s.436-7.85,1.762-9.732a4.164,4.164,0,1,1,6.8,4.8Z" transform="translate(-221.108 -451.727)"/><path class="c" d="M708.357,591.462s-3.176-1.076-4.7,1.722a5.1,5.1,0,0,0,.068,4.914,7.214,7.214,0,0,0,7,3.96c3.324-.178,4.42-2.714,4.724-5.074a5.212,5.212,0,0,0-6.922-5.58Z" transform="translate(-577.447 -482.289)"/><path class="d" d="M704.409,598a5.1,5.1,0,0,1-.068-4.914c1.528-2.8,4.7-1.722,4.7-1.722l.162-.058a5.166,5.166,0,0,1,3.732.084,5.168,5.168,0,0,0-4.4-.42l-.162.058s-3.176-1.076-4.7,1.722a5.1,5.1,0,0,0,.068,4.914,7.594,7.594,0,0,0,3.6,3.4A7.87,7.87,0,0,1,704.409,598Z" transform="translate(-577.463 -481.938)"/><path class="e" d="M721.36,599.64s1.178.926,4.036,0" transform="translate(-592.091 -489.121)"/><path class="c" d="M720.1,566s2.018,5.466,1.85,6.9l1.6-.168s-2.692-4.8-2.018-6.728Z" transform="translate(-591.083 -462.208)"/><path class="e" d="M720.1,566s2.018,5.466,1.85,6.9l1.6-.168s-2.692-4.8-2.018-6.728Z" transform="translate(-591.083 -462.208)"/><path class="c" d="M736.33,565.027s-3.176-1.624-4.6-.282-1.64,4.772-1.64,4.772S735.272,570.229,736.33,565.027Z" transform="translate(-599.075 -460.78)"/><path class="d" d="M736.33,565.027s-3.176-1.624-4.6-.282-1.64,4.772-1.64,4.772S735.272,570.229,736.33,565.027Z" transform="translate(-599.075 -460.78)"/><path class="f" d="M730.1,572.77s.834-3.982,6.238-4.49" transform="translate(-599.083 -464.032)"/><path class="b" d="M241.6,345.518s.648-10.572-4.486-17.068a16.048,16.048,0,0,1-3.514-9.524,27,27,0,0,1,.336-4.926" transform="translate(-201.878 -260.609)"/><path class="c" d="M219.018,282.39c.278,1.214,3.282,4.23,3.282,4.23s1.4-4.024,1.114-5.236a2.256,2.256,0,0,0-4.4,1Z" transform="translate(-190.17 -233.111)"/><path class="c" d="M206.066,315.742c.894.868,5.054,1.768,5.054,1.768s-1.018-4.134-1.912-5a2.255,2.255,0,0,0-3.142,3.234Z" transform="translate(-179.31 -258.907)"/><path class="c" d="M215.889,370.713c1.2.3,5.254-1.026,5.254-1.026s-2.966-3.054-4.174-3.352a2.255,2.255,0,0,0-1.08,4.378Z" transform="translate(-186.343 -302.424)"/><path class="c" d="M237.658,412.18c1.142.5,5.352-.124,5.352-.124s-2.4-3.512-3.548-4a2.254,2.254,0,1,0-1.8,4.133Z" transform="translate(-204.05 -335.703)"/><path class="c" d="M239.282,322.027c-.676,1.046-4.532,2.85-4.532,2.85s.07-4.256.748-5.3a2.254,2.254,0,1,1,3.784,2.452Z" transform="translate(-202.804 -264.246)"/><path class="c" d="M259.848,368.176c-.958.8-5.178,1.364-5.178,1.364s1.34-4.04,2.3-4.836a2.255,2.255,0,1,1,2.878,3.472Z" transform="translate(-218.74 -300.757)"/><path class="c" d="M277.142,419.185c-.81.946-4.872,2.22-4.872,2.22s.638-4.2,1.45-5.154a2.255,2.255,0,1,1,3.424,2.936Z" transform="translate(-232.82 -341.78)"/><path class="g" d="M219.018,282.39c.278,1.214,3.282,4.23,3.282,4.23s1.4-4.024,1.114-5.236a2.256,2.256,0,0,0-4.4,1Z" transform="translate(-190.17 -233.111)"/><path class="g" d="M206.066,315.742c.894.868,5.054,1.768,5.054,1.768s-1.018-4.134-1.912-5a2.255,2.255,0,0,0-3.142,3.234Z" transform="translate(-179.31 -258.907)"/><path class="g" d="M215.889,370.713c1.2.3,5.254-1.026,5.254-1.026s-2.966-3.054-4.174-3.352a2.255,2.255,0,0,0-1.08,4.378Z" transform="translate(-186.343 -302.424)"/><path class="g" d="M237.658,412.18c1.142.5,5.352-.124,5.352-.124s-2.4-3.512-3.548-4a2.254,2.254,0,1,0-1.8,4.133Z" transform="translate(-204.05 -335.703)"/><path class="g" d="M239.282,322.027c-.676,1.046-4.532,2.85-4.532,2.85s.07-4.256.748-5.3a2.254,2.254,0,1,1,3.784,2.452Z" transform="translate(-202.804 -264.246)"/><path class="g" d="M259.848,368.176c-.958.8-5.178,1.364-5.178,1.364s1.34-4.04,2.3-4.836a2.255,2.255,0,1,1,2.878,3.472Z" transform="translate(-218.74 -300.757)"/><path class="g" d="M277.142,419.185c-.81.946-4.872,2.22-4.872,2.22s.638-4.2,1.45-5.154a2.255,2.255,0,1,1,3.424,2.936Z" transform="translate(-232.82 -341.78)"/><path class="h" d="M403.748,705.912H387.84V696.95h15.908Zm-15.236-.672h14.56v-7.618h-14.56Z" transform="translate(-325.276 -566.968)"/><path class="i" d="M248.076,311.472a3.724,3.724,0,0,0,3.144.46,4.881,4.881,0,0,0,.818-.362c10.2.216,19.646.116,20.012-.982.6-1.82-3.2-10.784-5.118-15.116a4.856,4.856,0,0,0,1.4-1.462c2.664,3.046,7.62,6.976,10.566,7.172,0,0,4.3,10.214,9.138,8.6s5.376-10.214,2.956-11.288L274.866,288.28V271.332a6.347,6.347,0,0,0,.674-3.14c0-.2.01-.4,0-.6L275,262.754s-.028-.16-.1-.45c-1.2-4.662-3.874-7.8-7.644-8.266a2.755,2.755,0,0,0,.328-1.086c.078-.9-.3-1.826-.086-2.708.248-1.028,1.2-1.692,1.982-2.4a27.808,27.808,0,0,0,5.938-11.664,6.212,6.212,0,0,0-2.15-5.776c-1.36-.982-3.274-1.24-4.252-2.6a10.918,10.918,0,0,1-.922-2.054,8.1,8.1,0,0,0-4.782-4.122c-7.144-2.572-15.908.38-20.466,6.312a35.74,35.74,0,0,0-3.624,6.35l-3.84,7.938c-.662,1.366-1.3,3.072-.418,4.306.432.6,1.172.972,1.472,1.65.4.9-.1,2.078.488,2.87a3.715,3.715,0,0,0,1.368.868,5.357,5.357,0,0,1,1.654,1.466l-8.432,6.534a5.678,5.678,0,0,0-2.172,3.922l-.834,8.312a10.112,10.112,0,0,0-.376,2.9,4.945,4.945,0,0,0,.51,2.6l.184-.044c.2,5.83.548,14.218.892,15.768.2.92,1.462,2.542,3.162,4.214l-.6,1.7h.2l-.2.534h.4a27.646,27.646,0,0,1-6.31,10.746S237.04,311.156,248.076,311.472Zm-10.028-28.316v-6.534c.984.152,1.71.492,1.942,1.112ZM240.9,254.72l.032.048h-.012Z" transform="translate(-196.1 -185.965)"/><path class="j" d="M420.31,457.888s.51,18.124,1.022,20.422,7.916,9.2,11.742,9.454c0,0,4.084,9.7,8.68,8.168s5.106-9.7,2.8-10.722l-15.306-9.7v-19.4Z" transform="translate(-351.251 -374.297)"/><path class="k" d="M272.118,576.09s6.638,14.3,5.872,16.6-43.4,0-43.4,0,7.914-7.914,6.382-16.6Z" transform="translate(-202.676 -470.28)"/><path class="j" d="M315.076,358.09s-1.022,9.956.766,12.254-7.148,3.572-7.906,3.572a84.246,84.246,0,0,1-10.466-3.574c-1.532-.774-2.8-6.382-2.8-6.382s7.658,1.532,9.956-7.4Z" transform="translate(-250.74 -294.657)"/><path class="l" d="M300.749,232.972a7.693,7.693,0,0,1,4.542,3.914,10.457,10.457,0,0,0,.876,1.952c.928,1.3,2.746,1.54,4.038,2.474a5.931,5.931,0,0,1,2.042,5.486,17.472,17.472,0,0,1-2.082,5.738,17.8,17.8,0,0,1-3.55,5.34c-.74.678-1.648,1.308-1.884,2.284a17.922,17.922,0,0,0,.08,2.572c-.184,2.122-2.72,3.11-4.838,3.346a3.127,3.127,0,0,1-2.622-.554,4.558,4.558,0,0,1-.71-1.228,5.886,5.886,0,0,0-10.5-.108c-.5.956-.786,2.114-1.69,2.7-1.384.894-3.234-.156-4.252-1.448s-1.76-2.916-3.214-3.69a3.357,3.357,0,0,1-1.3-.824c-.558-.752-.084-1.87-.462-2.726-.286-.644-.988-1-1.4-1.568-.84-1.172-.232-2.8.4-4.09l3.648-7.54a33.264,33.264,0,0,1,3.442-6.032C285.638,233.332,293.962,230.528,300.749,232.972Z" transform="translate(-233.736 -195.078)"/><path class="m" d="M267.072,397.65s-9.956,0-12.508-9.19l-8.38,6.494a5.4,5.4,0,0,0-2.062,3.726l-.8,7.906s-.894,2.936.128,4.722c0,0,10.6-2.68,10.85.382l-7.4,20.678s11.488.256,14.55-1.786c0,0,12.508,2.552,15.572-.256s6.126-2.552,3.574-8.934a12.634,12.634,0,0,0,2.8-12.254c-2.306-7.148-.128.128-.128.128s4.978-2.426,4.722-7.02l-.51-4.6s-.028-.152-.1-.426c-1.556-6.056-5.738-9.4-11.616-7.268a5.39,5.39,0,0,1-3.474-.09S274.218,398.168,267.072,397.65Z" transform="translate(-209.372 -320.177)"/><path class="n" d="M267.072,395.1s-9.956,0-12.508-9.19l-8.38,6.494a5.4,5.4,0,0,0-2.062,3.724l-.8,7.906s-.894,2.936.128,4.722c0,0,10.6-2.68,10.85.382l-7.4,20.678s11.488.256,14.55-1.786c0,0,12.508,2.552,15.572-.256s6.126-2.552,3.574-8.934a12.634,12.634,0,0,0,2.8-12.254c-2.306-7.148-.128.128-.128.128s4.978-2.426,4.722-7.02l-.51-4.6s-.028-.152-.1-.426c-1.556-6.056-5.738-9.4-11.616-7.268a5.39,5.39,0,0,1-3.474-.09S274.218,395.61,267.072,395.1Z" transform="translate(-209.372 -318.137)"/><path class="j" d="M245.45,468.106s.51,18.124,1.022,20.422,7.914,9.19,11.742,9.446c0,0,4.084,9.7,8.68,8.168s5.106-9.7,2.8-10.722l-15.316-9.7v-19.4Z" transform="translate(-211.364 -382.465)"/><path class="m" d="M256.1,463.679s-5.866,3.984-10.976,3.652c0,0-.51-6.842,1.022-7.224S254.314,460.106,256.1,463.679Z" transform="translate(-211.038 -377.399)"/><path class="o" d="M256.1,462.4s-5.866,3.984-10.976,3.65c0,0-.51-6.842,1.022-7.224S254.314,458.827,256.1,462.4Z" transform="translate(-211.038 -376.375)"/><path class="m" d="M333.284,359.1l10.466,1.532s-.236,2.3-.282,4.95a11.748,11.748,0,0,1-12.318-2A11.575,11.575,0,0,0,333.284,359.1Z" transform="translate(-279.924 -296.689)"/><circle class="j" cx="11.742" cy="11.742" r="11.742" transform="translate(47.744 45.819)"/><path class="m" d="M311.872,269.834a3.645,3.645,0,0,0,1.57.224q3.116-.02,6.226-.23a7.632,7.632,0,0,0,4.46-1.3,5.092,5.092,0,0,0,1.048-5.838,10.367,10.367,0,0,0-4.374-4.476,13.058,13.058,0,0,0-3.3-1.5,11.037,11.037,0,0,0-9.762,2.45,17.274,17.274,0,0,0-5.28,8.846c-.312,1.166-.712,2.554-1.866,2.908.768,1.278,2.642,1.48,3.99.84,1.984-.944,3-4.556,4.782-5.124C311.344,266.014,310.188,269.062,311.872,269.834Z" transform="translate(-255.476 -214.529)"/><path class="l" d="M311.9,268.594a3.646,3.646,0,0,0,1.57.224q3.116-.02,6.226-.23a7.632,7.632,0,0,0,4.46-1.3,5.093,5.093,0,0,0,1.048-5.838,10.367,10.367,0,0,0-4.374-4.476,13.054,13.054,0,0,0-3.3-1.488,11.037,11.037,0,0,0-9.762,2.45,17.275,17.275,0,0,0-5.28,8.846c-.312,1.166-.712,2.554-1.866,2.908.768,1.278,2.642,1.48,3.99.84,1.984-.944,3-4.556,4.782-5.124C311.368,264.776,310.212,267.822,311.9,268.594Z" transform="translate(-255.5 -213.545)"/><path class="m" d="M384.832,543.792a45.224,45.224,0,0,0-11.742-1.532" transform="translate(-313.476 -443.216)"/><path class="m" d="M300.33,481s3.83,2.8,2.8,4.34" transform="translate(-255.268 -394.209)"/><g class="p" transform="translate(25.572 115.736)"><path class="q" d="M253.221,578.64H127.88V589.6h7.3V624.08H246.185V589.6h7.036Z" transform="translate(-127.88 -578.64)"/></g><rect class="r" width="108.747" height="39.058" transform="translate(33.996 122.118)"/><rect class="m" width="108.747" height="6.126" transform="translate(33.996 124.16)"/><rect class="r" width="122.789" height="10.466" transform="translate(26.848 117.778)"/><rect class="s" width="23.486" height="3.318" rx="1.659" transform="translate(50.048 115.202)"/><g class="p" transform="translate(64.342 78.201)"><rect class="q" width="58.371" height="40.36" rx="20.18"/></g><rect class="t" width="55.295" height="39.614" rx="19.807" transform="translate(65.384 78.947)"/><rect class="s" width="55.295" height="39.614" rx="10" transform="translate(66.15 78.947)"/><circle class="r" cx="1.786" cy="1.786" r="1.786" transform="translate(94.595 96.695)"/><g transform="translate(94.592 4.715)"><path class="q" d="M504.5,20.39V89.183H605.485V20.39Z" transform="translate(-504.5 -20.39)"/><rect class="u" width="98.417" height="4.74" transform="translate(1.498 0.056)"/><circle class="v" cx="1.15" cy="1.15" r="1.15" transform="translate(4.092 1.204)"/><circle class="w" cx="1.15" cy="1.15" r="1.15" transform="translate(7.254 1.204)"/><circle class="x" cx="1.15" cy="1.15" r="1.15" transform="translate(10.414 1.204)"/><g transform="translate(7.663 12.578)"><path class="c" d="M887.557,298.877H839.23v-9.093C851.038,284.267,869.2,281.168,887.557,298.877Z" transform="translate(-839.23 -253.621)"/><g class="y" transform="translate(25.551 31.847)"><path d="M963.4,297.588v1.288H903.13V298.6S932.787,269.738,963.4,297.588Z" transform="translate(-903.13 -285.467)"/></g><path class="c" d="M964.79,297.588v1.288H904.52V298.6S934.177,269.738,964.79,297.588Z" transform="translate(-878.413 -253.62)"/><circle class="c" cx="4.442" cy="4.442" r="4.442" transform="translate(5.558)"/><path class="z" d="M951.972,208.312c-.508,0-1.076,0-1.46.032a1.778,1.778,0,0,0-.508.1l-2.615.94c2.111.052,4.315.036,6.474,0L966,209.3c1.236,0,2.539-.02,3.571-.1.692-.048,1.2-.124,1.835-.18,2.3-.2,5.646-.164,8.637-.156a47.2,47.2,0,0,0,7.653-.368h-6.418c-.692,0-1.42,0-2.031-.036-.716-.04-1.151-.12-1.779-.176-1.039-.088-2.471-.1-3.807-.1C966.347,208.176,959.122,208.352,951.972,208.312Z" transform="translate(-904.141 -207.236)"/><path class="z" d="M975.372,221.962h-.316a.4.4,0,0,0-.108.024l-.568.2h1.4l2.627-.02c.268,0,.548,0,.772-.02l.4-.04c.5-.044,1.224-.036,1.871-.032a10.2,10.2,0,0,0,1.66-.08h-1.832c-.132,0-.248-.028-.4-.036-.224,0-.536-.02-.824-.024C978.482,221.93,976.919,221.962,975.372,221.962Z" transform="translate(-920.339 -215.492)"/><path class="z" d="M928.832,241.4h-.316a.4.4,0,0,0-.108.024l-.568.2h1.4l2.627-.02c.268,0,.548,0,.772-.02l.4-.04c.5-.044,1.224-.036,1.871-.032a10.192,10.192,0,0,0,1.659-.08h-1.831c-.132,0-.248-.028-.4-.036-.224,0-.536-.02-.824-.024C931.946,241.376,930.379,241.411,928.832,241.4Z" transform="translate(-892.409 -227.161)"/><path class="c" d="M900.969,268.009H898.9s-.652-22.84,2.087-29.889h.524S899.666,263.967,900.969,268.009Z" transform="translate(-874.999 -225.205)"/><path class="c" d="M890.412,217.972s-1.7,4.7-.912,6.8c0,0,1.175-4.306,2.547-4.958s2.8,4.958,2.8,4.958a10.763,10.763,0,0,0-.652-6.4,11.347,11.347,0,0,1,4.306,4.566s.26-1.959-3.131-6a13.5,13.5,0,0,1,4.958,2.611s.652-1.435-3.395-3.787c0,0,.524-1.7,3.655-.912,0,0,0-2.219-4.958-1.827,0,0,0-1.435,3.263-1.176,0,0,0-1.827-3.787-1.176a6.1,6.1,0,0,1,1.3-1.435,2.623,2.623,0,0,0-1.827.524,3.531,3.531,0,0,0-1.827-3.263l-.26,3.263s-2.2-2.587-1.7-2.087a5.727,5.727,0,0,1,.4,2.479,4.065,4.065,0,0,0-4.958.132s3.395.26,3.914,1.436c0,0-2.871-.524-3.523-.132,0,0,2.219.8,2.087,1.3,0,0-3.915,0-4.438,1.436,0,0,4.047.524,4.306.912,0,0-4.7,3.395-4.958,4.306,0,0,4.83-2.871,5.6-2.871s-3.523,4.179-3.263,5.222C885.977,221.894,889.5,217.708,890.412,217.972Z" transform="translate(-865.876 -206.228)"/><path class="c" d="M968.01,276.466h1.6s.5-17.45-1.6-22.836h-.4S969.005,273.371,968.01,276.466Z" transform="translate(-916.276 -234.513)"/><path class="c" d="M959.677,238.249s1.3,3.6.7,5.2c0,0-.9-3.291-1.943-3.791s-2.143,3.791-2.143,3.791a8.31,8.31,0,0,1,.5-4.886,8.669,8.669,0,0,0-3.291,3.491s-.2-1.5,2.4-4.586a10.106,10.106,0,0,0-3.791,2s-.5-1.1,2.591-2.891c0,0-.4-1.3-2.8-.7,0,0,0-1.7,3.791-1.4,0,0,0-1.1-2.491-.9,0,0,0-1.4,2.891-.9a4.4,4.4,0,0,0-1-1.1,2,2,0,0,1,1.4.4,2.7,2.7,0,0,1,1.4-2.491l.2,2.491s1.676-1.975,1.3-1.6a4.374,4.374,0,0,0-.3,1.9,3.111,3.111,0,0,1,3.791.1s-2.591.2-2.991,1.1c0,0,2.2-.4,2.691-.1,0,0-1.7.6-1.6,1,0,0,2.991,0,3.391,1.1,0,0-3.091.4-3.291.7,0,0,3.6,2.591,3.79,3.291,0,0-3.69-2.2-4.286-2.2s2.691,3.2,2.491,4C963.068,241.24,960.377,238.049,959.677,238.249Z" transform="translate(-906.848 -220.031)"/><path class="c" d="M1015.978,280.983h.988s.308-10.8-.988-14.143h-.248S1016.594,279.068,1015.978,280.983Z" transform="translate(-945.155 -242.441)"/><path class="c" d="M1010.768,257.282s.8,2.223.432,3.2c0,0-.556-2.039-1.2-2.347s-1.328,2.347-1.328,2.347a5.159,5.159,0,0,1,.308-3.027,5.37,5.37,0,0,0-2.039,2.163s-.124-.928,1.483-2.839a6.264,6.264,0,0,0-2.347,1.236s-.308-.68,1.6-1.791c0,0-.248-.8-1.727-.432,0,0,0-1.052,2.347-.864,0,0,0-.68-1.543-.556,0,0,0-.864,1.791-.556a2.718,2.718,0,0,0-.616-.68,1.243,1.243,0,0,1,.864.248,1.671,1.671,0,0,1,.864-1.543l.124,1.543s1.04-1.224.8-.988a2.708,2.708,0,0,0-.184,1.172,1.923,1.923,0,0,1,2.347.06s-1.6.124-1.851.68a4.619,4.619,0,0,1,1.667-.06s-1.052.372-.988.616c0,0,1.851,0,2.1.68a9.392,9.392,0,0,0-2.039.432s2.223,1.6,2.347,2.039a17.4,17.4,0,0,0-2.655-1.359c-.372,0,1.668,1.975,1.544,2.471C1012.888,259.133,1011.22,257.158,1010.768,257.282Z" transform="translate(-939.286 -233.439)"/><path class="aa" d="M917.566,264.776h0l-.208-1.112a.6.6,0,0,0-.188-.436l-.964-.472h0a1.092,1.092,0,0,1-.172-.288v-.024a.577.577,0,0,0,.112-.228.431.431,0,0,0,0-.064h0a.356.356,0,0,0,.4-.288v-.024a.356.356,0,0,1-.324.268.984.984,0,0,0,.436-.8v-.04a.355.355,0,0,0,.164-.24V261a.355.355,0,0,1-.172.224.976.976,0,0,0-.06-.268h.024a.356.356,0,0,0,.356-.356v-.024a.356.356,0,0,1-.356.332h-.044a.584.584,0,0,0,.4-.476v-.024a.355.355,0,0,1-.072.192.358.358,0,1,0-.708-.1l-.064-.036a.355.355,0,0,1,.324-.26h-.024a.356.356,0,0,0-.344.24.984.984,0,0,0-1.24.356c-.076.056-.172.136-.168.2a.679.679,0,0,0-.084.1,1.364,1.364,0,0,0-.112.74.8.8,0,0,1-.256.68.34.34,0,0,0,.264,0,1,1,0,0,0,.232-.136.516.516,0,0,0,.164-.156h0a.8.8,0,0,0,.148.076c.02.168.024.36-.048.42h0V262.7a.9.9,0,0,1-.628.18.8.8,0,0,0-.648.4l-.3,1.284h0v.02h0v.02h0a.1.1,0,0,0,.072.072l.092.024a1.957,1.957,0,0,1,0,.616,5.456,5.456,0,0,0-.108.944c.024.16.064.984.08,1.375q-.05.2-.08.4l-.448,2.683s-.332,2.147-.316,2.8l-.06.376s-.908,1.14-.64,1.3.676.232,1.068-.376a.98.98,0,0,1,.248-.376.368.368,0,0,0,.124-.312l-.028-.264h.076a9.27,9.27,0,0,0,.4-2.5s.828-2.951,1.459-3.415h0l.06-.028.136,2.855-.136,3.151-.028.188s-.908,1.14-.64,1.3.676.232,1.068-.376a.978.978,0,0,1,.248-.376.368.368,0,0,0,.124-.312l-.04-.4a8.164,8.164,0,0,0,.4-2.943l.276-1.883a1.985,1.985,0,0,0,.24-1.108,10.2,10.2,0,0,0,.268-2.255l.056-.888h.168l.02-.024h0v-.02h0Zm-.776,1.8a1.967,1.967,0,0,0-.084-.184h-.024v-.068a.8.8,0,0,0,.032-.092.347.347,0,0,0,.052-.192,1.807,1.807,0,0,1,.04.536Zm-.084-.76-.056-.6v-.048l.076.756Zm-2.635.08a.207.207,0,0,0-.048.16h0a.676.676,0,0,0,.024.18l-.088.372V265.9a1.577,1.577,0,0,0,.148-.24.4.4,0,0,1-.016.24Z" transform="translate(-882.87 -238.453)"/><path class="ab" d="M918.176,262.63a1.311,1.311,0,0,0-.108.712.756.756,0,0,1-.248.656.328.328,0,0,0,.252,0,.967.967,0,0,0,.224-.132.5.5,0,0,0,.156-.152.593.593,0,0,0,.036-.3,3.2,3.2,0,0,1,.048-.54c0-.112.124-.4,0-.472S918.232,262.542,918.176,262.63Z" transform="translate(-886.395 -239.766)"/><path class="ac" d="M913,292.408l-.084.548s-.876,1.1-.616,1.252.652.224,1.028-.36a.945.945,0,0,1,.24-.36h0a.355.355,0,0,0,.12-.3l-.084-.848Z" transform="translate(-883.052 -257.744)"/><path class="ac" d="M919.587,292.958l-.084.548s-.876,1.1-.616,1.252.652.224,1.028-.36a.942.942,0,0,1,.24-.36h0a.356.356,0,0,0,.12-.3l-.084-.848Z" transform="translate(-887.007 -258.074)"/><path class="ad" d="M915.362,276.09a2.072,2.072,0,0,0-.564,1.331L914.366,280a22.751,22.751,0,0,0-.3,2.8l.728.248a8.924,8.924,0,0,0,.4-2.4s.876-3.115,1.488-3.335l.128,2.751-.136,3.1.624.124a8.464,8.464,0,0,0,.432-3.015l.324-2.219a3.286,3.286,0,0,0-.144-2.211Z" transform="translate(-884.145 -247.848)"/><g class="y" transform="translate(30.605 27.994)"><path d="M917.633,279.548V279.5c-.612.22-1.487,3.335-1.487,3.335a8.754,8.754,0,0,1-.376,2.375l.08.028a8.929,8.929,0,0,0,.4-2.4S917.025,280,917.633,279.548Z" transform="translate(-915.77 -278.032)"/><path d="M922.672,275.83h-.084a3.292,3.292,0,0,1,.14,2.2l-.324,2.219a8.37,8.37,0,0,1-.424,3h.08a8.464,8.464,0,0,0,.432-3.015l.324-2.219A3.287,3.287,0,0,0,922.672,275.83Z" transform="translate(-919.497 -275.83)"/></g><path class="ae" d="M915.9,271.2a.092.092,0,0,0,.072.092,1.439,1.439,0,0,1,.552.264c.308.24-.324-.48-.324-.48l-.212.048Z" transform="translate(-885.243 -244.985)"/><path class="m" d="M915.9,271.2a.092.092,0,0,0,.072.092,1.439,1.439,0,0,1,.552.264c.308.24-.324-.48-.324-.48l-.212.048Z" transform="translate(-885.243 -244.985)"/><path class="ae" d="M923.42,272.27a1.932,1.932,0,0,1,.868-.344.08.08,0,0,0,.08-.08h0a.692.692,0,0,0-.948.424Z" transform="translate(-889.756 -245.408)"/><path class="m" d="M924.368,271.816a.692.692,0,0,0-.948.424,1.635,1.635,0,0,1,.908-.344" transform="translate(-889.756 -245.39)"/><circle class="ab" cx="0.948" cy="0.948" r="0.948" transform="translate(31.873 22.132)"/><path class="j" d="M919.261,264.444s.136.556,0,.672-.4.324-.2.488.928.44,1.168.308.516-.1.452-.372-.592-.22-.6-1.6Z" transform="translate(-887.097 -240.7)"/><path class="m" d="M916.08,271a3.461,3.461,0,0,1-.056.9,5.3,5.3,0,0,0-.1.908c.028.2.088,1.523.088,1.523s-.1,1.16.46,1.052-.088-1.32-.088-1.32l.028-1.6a1.477,1.477,0,0,0,.288-.708C916.72,271.4,916.08,271,916.08,271Z" transform="translate(-885.255 -244.937)"/><path class="j" d="M916.05,271a3.467,3.467,0,0,1-.056.9,5.276,5.276,0,0,0-.1.908c.028.2.088,1.523.088,1.523s-.1,1.16.46,1.052-.088-1.32-.088-1.32l.028-1.6a1.477,1.477,0,0,0,.288-.708C916.694,271.4,916.05,271,916.05,271Z" transform="translate(-885.237 -244.937)"/><path class="m" d="M923.711,271.19l-.076,1.236a9.85,9.85,0,0,1-.26,2.171s.056,1.2-.508,1.2.1-1.332.1-1.332a5.456,5.456,0,0,0,.148-1.783l-.148-1.483Z" transform="translate(-889.288 -245.051)"/><path class="j" d="M923.731,271.19l-.076,1.236a9.857,9.857,0,0,1-.26,2.171s.056,1.2-.508,1.2.1-1.332.1-1.332a5.451,5.451,0,0,0,.148-1.783l-.148-1.483Z" transform="translate(-889.3 -245.051)"/><path class="m" d="M917.8,267.47s.456.212.708-.4l.932.456a.58.58,0,0,1,.18.42l.2,1.072a.684.684,0,0,0-.892.4l.056.6h0a.648.648,0,0,1-.028.452.1.1,0,0,0,0,.08.3.3,0,0,1-.268.4,5.645,5.645,0,0,0-.748.056c-.2.056-.8-.116-1,0s-.624-.088-.624-.088l.116-.488s-.076-.24,0-.324a2.087,2.087,0,0,0-.048-1.044s-.344-.324-.544-.268l.288-1.236a.752.752,0,0,1,.624-.4.871.871,0,0,0,.6-.172S917.132,267.394,917.8,267.47Z" transform="translate(-885.207 -242.531)"/><path class="m" d="M917.875,267.378c.124.032.46.072.66-.432l.932.456a.58.58,0,0,1,.18.42l.2,1.072a.683.683,0,0,0-.892.4l.056.6.036.12a.34.34,0,0,1-.048.3.107.107,0,0,0,0,.112.3.3,0,0,1-.268.4,5.648,5.648,0,0,0-.748.056c-.2.056-.8-.116-1,0s-.624-.088-.624-.088l.116-.488s-.076-.24,0-.324a2.083,2.083,0,0,0-.048-1.044s-.344-.324-.544-.268l.288-1.236a.751.751,0,0,1,.624-.4.872.872,0,0,0,.6-.172s-.224.4.368.5Z" transform="translate(-885.231 -242.459)"/><path class="ae" d="M917.851,267.422c.124.032.46.072.66-.432l.932.456a.58.58,0,0,1,.18.42l.2,1.072a.684.684,0,0,0-.892.4l.056.6h0a.648.648,0,0,1-.028.452.1.1,0,0,0,0,.08.3.3,0,0,1-.268.4,5.625,5.625,0,0,0-.748.056c-.2.056-.8-.116-1,0s-.624-.088-.624-.088l.116-.488s-.076-.24,0-.324a2.086,2.086,0,0,0-.048-1.044s-.344-.324-.544-.268l.288-1.236a.752.752,0,0,1,.624-.4.871.871,0,0,0,.6-.172s-.224.4.368.5Z" transform="translate(-885.207 -242.483)"/><path class="m" d="M920.55,264.05l-.8.508a2.648,2.648,0,0,1,.048.264.8.8,0,0,0,.292.056.819.819,0,0,0,.528-.24A3.151,3.151,0,0,1,920.55,264.05Z" transform="translate(-887.553 -240.766)"/><circle class="j" cx="0.784" cy="0.784" r="0.784" transform="translate(31.721 22.496)"/><circle class="ab" cx="0.344" cy="0.344" r="0.344" transform="translate(33.32 21.988)"/><path class="ab" d="M923.064,262.1a.344.344,0,0,1-.344-.32v.024a.344.344,0,1,0,.688,0,.229.229,0,0,0,0-.024A.344.344,0,0,1,923.064,262.1Z" transform="translate(-889.336 -239.404)"/><path class="ab" d="M922.661,262.876a.344.344,0,0,1-.28-.376v.024a.346.346,0,0,0,.68.124v-.024A.344.344,0,0,1,922.661,262.876Z" transform="translate(-889.129 -239.836)"/><path class="ab" d="M921.991,264.936a.344.344,0,0,1-.28-.376v.024a.345.345,0,1,0,.68.124v-.024A.344.344,0,0,1,921.991,264.936Z" transform="translate(-888.727 -241.072)"/><path class="ab" d="M923.064,261.65a.344.344,0,0,1-.344-.32v.024a.344.344,0,1,0,.688,0,.229.229,0,0,0,0-.024A.344.344,0,0,1,923.064,261.65Z" transform="translate(-889.336 -239.134)"/><path class="ab" d="M922.314,261.15a.344.344,0,0,1,.324-.34h-.024a.344.344,0,1,0,0,.688h.024A.344.344,0,0,1,922.314,261.15Z" transform="translate(-889.066 -238.822)"/><path class="m" d="M923.228,269.79a1.241,1.241,0,0,1,0,.516s-.048.452.028.528" transform="translate(-889.632 -244.211)"/><path class="m" d="M917.407,270a1.239,1.239,0,0,1,0,.516s-.048.452.028.528" transform="translate(-886.139 -244.337)"/><path class="m" d="M917.38,274.64a.344.344,0,0,0,.228,0,.48.48,0,0,1,.276,0" transform="translate(-886.131 -247.109)"/><path class="m" d="M917.67,272.814a2,2,0,0,0,.8-.124s.976.24,1.255.068" transform="translate(-886.305 -245.952)"/><rect class="j" width="0.604" height="0.372" rx="0.186" transform="translate(30.657 30.977)"/><path class="af" d="M915.9,283.53h.324l.28.044h-.1Z" transform="translate(-885.243 -252.457)"/><path class="af" d="M921.33,279.65h.324l.28.028h-.1Z" transform="translate(-888.502 -250.128)"/><path class="af" d="M921.33,279.82h.324l.28.028h-.1Z" transform="translate(-888.502 -250.231)"/><path class="af" d="M921.33,280h.324l.28.028h-.1Z" transform="translate(-888.502 -250.339)"/><path class="af" d="M921.33,280.15h.324l.28.028h-.1Z" transform="translate(-888.502 -250.429)"/><path class="af" d="M915.9,284.19h.324l.28.032h-.1Z" transform="translate(-885.243 -252.853)"/><path class="af" d="M915.9,284.11h.324l.28.032h-.1Z" transform="translate(-885.243 -252.805)"/><path class="af" d="M915.9,284h.324l.28.032h-.1Z" transform="translate(-885.243 -252.739)"/><path class="af" d="M915.9,283.94h.324l.28.032h-.1Z" transform="translate(-885.243 -252.703)"/><path class="af" d="M915.9,283.42h.324l.28.044h-.1Z" transform="translate(-885.243 -252.391)"/><path class="af" d="M915.9,283.28h.324l.28.044h-.1Z" transform="translate(-885.243 -252.307)"/><path class="m" d="M920.834,262.235a1.9,1.9,0,0,0,.108.864,1.031,1.031,0,0,1-.048.824.271.271,0,0,0,.244-.06.949.949,0,0,0,.176-.208.553.553,0,0,0,.108-.216.858.858,0,0,0-.056-.364,4.716,4.716,0,0,1-.116-.648c0-.132,0-.516-.148-.552S920.862,262.123,920.834,262.235Z" transform="translate(-888.197 -239.459)"/><path class="ab" d="M920.884,262.227a1.9,1.9,0,0,0,.108.864,1.032,1.032,0,0,1-.044.832.272.272,0,0,0,.244-.06.946.946,0,0,0,.176-.208.554.554,0,0,0,.108-.216.86.86,0,0,0-.056-.364,4.715,4.715,0,0,1-.116-.648c0-.132,0-.516-.148-.552S920.924,262.115,920.884,262.227Z" transform="translate(-888.227 -239.459)"/><path class="m" d="M919.359,262.2c.064.068.08.172.136.252a.492.492,0,0,0,.4.156.22.22,0,0,1,.112.024c.06.04.064.128.1.188a.22.22,0,0,0,.328,0,.537.537,0,0,0,.1-.328,2.145,2.145,0,0,0,0-.4.636.636,0,0,0-.176-.424.736.736,0,0,0-.308-.132.911.911,0,0,0-.476-.036.857.857,0,0,0-.216.108l-.28.188c-.1.072-.3.216-.108.3C919.107,262.115,919.259,262.087,919.359,262.2Z" transform="translate(-887.039 -239.223)"/><path class="ab" d="M919.451,262.151c.064.068.08.172.136.252a.492.492,0,0,0,.4.156.221.221,0,0,1,.112.024c.06.04.064.128.1.188a.22.22,0,0,0,.328,0,.537.537,0,0,0,.124-.344,2.145,2.145,0,0,0,0-.4.635.635,0,0,0-.176-.424.736.736,0,0,0-.308-.132.913.913,0,0,0-.476-.036.857.857,0,0,0-.216.108l-.28.188c-.1.072-.3.216-.108.3A.673.673,0,0,1,919.451,262.151Z" transform="translate(-887.11 -239.188)"/><path class="af" d="M921.38,279.65h.324l.28.028h-.1Z" transform="translate(-888.532 -250.128)"/><path class="af" d="M921.38,279.82h.324l.28.028h-.1Z" transform="translate(-888.532 -250.231)"/><path class="af" d="M921.38,280h.324l.28.028h-.1Z" transform="translate(-888.532 -250.339)"/><path class="af" d="M921.38,280.15h.324l.28.028h-.1Z" transform="translate(-888.532 -250.429)"/><path class="af" d="M921,289.38h.324l.28.028h-.1Z" transform="translate(-888.304 -255.968)"/><path class="af" d="M921,289.54h.324l.28.028h-.1Z" transform="translate(-888.304 -256.064)"/><path class="af" d="M921,289.71h.324l.28.028h-.1Z" transform="translate(-888.304 -256.166)"/><path class="af" d="M921,289.88h.324l.28.028h-.1Z" transform="translate(-888.304 -256.268)"/></g><rect class="ag" width="98.417" height="64.427" transform="translate(1.498 3.12)"/><path class="ah" d="M.129.344a.5.5,0,0,1,.3.046l10.6,5.776s.227.138.227.272-.227.265-.227.265L.364,12.63a.454.454,0,0,1-.263,0c-.091-.049-.1-.194-.1-.194V.562S.022.387.129.344Z" transform="translate(48.068 27.827)"/></g></g></svg>