<svg xmlns="http://www.w3.org/2000/svg" viewBox="-636 140.415 305 164.585"><defs><style>.a,.b{fill:#02214a;}.a{font-size:28px;font-family:PingFangSC-Semibold, PingFang SC;font-weight:600;}.b{font-size:14px;font-family:Lato-Medium, Lato;font-weight:500;}.c{font-family:PingFangSC-Medium, PingFang SC;}.d,.e,.f{fill:none;stroke:#02214a;stroke-width:3px;}.e{opacity:0.4;}.f{opacity:0.7;}</style></defs><g transform="translate(-2855 -8928)"><text class="a" transform="translate(2219 9223)"><tspan x="0" y="0">客户</tspan></text><text class="b" transform="translate(2221.931 9154.672) rotate(-30)"><tspan x="0" y="15">7. </tspan><tspan class="c" y="15">上传需求视频</tspan><tspan y="15">/</tspan><tspan class="c" y="15">图片</tspan></text><text class="b" transform="translate(2428 9149)"><tspan x="0" y="0">8.</tspan><tspan class="c" y="0">发布客户任务</tspan></text><text class="b" transform="translate(2284.507 9172.09) rotate(-30)"><tspan x="0" y="15">9. </tspan><tspan class="c" y="15">提供任务处理结果</tspan></text><text class="a" transform="translate(2395 9105)"><tspan x="0" y="0">平台</tspan></text><text class="a" transform="translate(2353 9223)"><tspan x="0" y="0">众包工作员</tspan></text><path class="d" d="M-1003.259,15988.84l-123.534-124.122v10.105" transform="matrix(-0.259, 0.966, -0.966, -0.259, 17405.316, 14296.753)"/><path class="e" d="M-1012.049,15977.722l-114.745-113v10.105" transform="matrix(0.259, -0.966, 0.966, 0.259, -12785.868, 3991.482)"/><path class="f" d="M-1079.967,15911.544l-46.826-46.826v10.105" transform="translate(-9597.497 19608.357) rotate(-135)"/></g></svg>