<svg xmlns="http://www.w3.org/2000/svg" viewBox="-1128.147 144.574 433.294 199.877"><defs><style>.a,.b{fill:#02214a;}.a{font-size:28px;font-family:PingFangSC-Semibold, PingFang SC;font-weight:600;}.b{font-size:14px;font-family:Lato-Medium, Lato;font-weight:500;}.c{font-family:PingFangSC-Medium, PingFang SC;}.d,.e,.f{fill:none;stroke:#02214a;stroke-width:3px;}.e{opacity:0.7;}.f{opacity:0.4;}</style></defs><g transform="translate(-4979.147 -8621)"><text class="a" transform="translate(4113.294 8955.451)"><tspan x="0" y="0">客户</tspan></text><text class="a" transform="translate(4015.294 8795.574)"><tspan x="0" y="0">众包工作员</tspan></text><text class="b" transform="translate(4025.95 8848)"><tspan x="0" y="0">4. </tspan><tspan class="c" y="0">发布微程序</tspan></text><text class="b" transform="translate(4160.294 8820.322)"><tspan x="0" y="0">5.</tspan><tspan class="c" y="0">讲解任务处理规则</tspan></text><text class="b" transform="translate(3989.294 8912.66)"><tspan x="0" y="0">6.</tspan><tspan class="c" y="0">提供微程序下载入口</tspan></text><text class="a" transform="translate(4143.327 8870.202)"><tspan x="0" y="0">平台</tspan></text><text class="a" transform="translate(3851 8870.202)"><tspan x="0" y="0">客户技术专员</tspan></text><path class="d" d="M-1054.793,15936.718l-32.5-32.5-39.5-39.5v10.105" transform="translate(14548.919 20877.531) rotate(135)"/><path class="e" d="M-1099.229,15892.282l-15.213-15.213-12.351-12.352v10.105" transform="translate(5261.731 -7053.202)"/><path class="f" d="M-1082.645,15905.013l-44.149-40.295v10.105" transform="translate(-11735.719 7798.846) rotate(-90)"/></g></svg>