<svg xmlns="http://www.w3.org/2000/svg" viewBox="-1488 122.996 267 200.104"><defs><style>.a,.b{fill:#02214a;}.a{font-size:28px;font-family:PingFangSC-Semibold, PingFang SC;font-weight:600;}.b{font-size:14px;font-family:Lato-Medium, Lato;font-weight:500;}.c{font-family:PingFangSC-Medium, PingFang SC;}.d,.e,.f{fill:none;stroke:#02214a;stroke-width:3px;}.d{opacity:0.4;}.f{opacity:0.7;}</style></defs><g transform="translate(-30 -15656)"><text class="a" transform="translate(-1458 15843.479)"><tspan x="0" y="0">客户</tspan></text><text class="b" transform="translate(-1371.784 15808)"><tspan x="0" y="0">1.</tspan><tspan class="c" y="0">提供需求描述</tspan></text><text class="b" transform="translate(-1284.71 15929.545) rotate(-45)"><tspan x="0" y="0">2.</tspan><tspan class="c" y="0">分配技术专员</tspan></text><text class="b" transform="translate(-1436.237 15865.202) rotate(45)"><tspan x="0" y="0">3.</tspan><tspan class="c" y="0">沟通需求细节</tspan></text><text class="a" transform="translate(-1247 15843.479)"><tspan x="0" y="0">平台</tspan></text><text class="a" transform="translate(-1401.885 15969.101)"><tspan x="0" y="0">客户技术专员</tspan></text><path class="d" d="M-1054.793,15936.718l-32.5-32.5-39.5-39.5v10.105" transform="translate(-287.486 -14)"/><path class="e" d="M-1054.793,15936.718l-32.5-32.5-39.5-39.5v10.105" transform="translate(9147.919 27846.531) rotate(135)"/><path class="f" d="M-1054.793,15936.718l-32.5-32.5-39.5-39.5v10.105" transform="translate(-17181.314 14799.926) rotate(-90)"/></g></svg>